<svg xmlns="http://www.w3.org/2000/svg" viewBox="0 0 222.17 225.25"><defs><style>.cls-1{fill:#f1416c;}</style></defs><title>Asset 96</title><g id="Layer_2" data-name="Layer 2"><g id="Layer_26" data-name="Layer 26"><path class="cls-1" d="M189.58,60a98,98,0,1,1-26.77-26l2.74-12a109.63,109.63,0,1,0,35.91,34.78Z"/><path class="cls-1" d="M222.17,24.4l-24.82.42L196.92,0l-22,22.82-5.42,22.73c-.6.29-64.21,66.21-64.21,66.21a5.83,5.83,0,1,0,8.39,8.1s63.85-65.75,64.12-66.35l22.37-6.29Z"/><path class="cls-1" d="M160.08,84.18a59.89,59.89,0,1,1-21-20.23l8.3-8.59a71.31,71.31,0,1,0,21.05,20.18Z"/><circle class="cls-1" cx="109.44" cy="115.81" r="27.63"/></g></g></svg>