<svg xmlns="http://www.w3.org/2000/svg" viewBox="0 0 137.68 118.01"><defs><style>.cls-1{fill:#45ab6e;}</style></defs><title>Asset 85</title><g id="Layer_2" data-name="Layer 2"><g id="Layer_26" data-name="Layer 26"><path class="cls-1" d="M68.53.07A7.7,7.7,0,0,1,73.8,1.32,8,8,0,0,1,76.6,4.5a12.69,12.69,0,0,1,1.35,6,19.62,19.62,0,0,0,.24,2.63,1.68,1.68,0,0,0,.34.92c1.24,1.27.69,2.69.34,4.05a19.22,19.22,0,0,1-1.06,2.86,3.36,3.36,0,0,1-.95,1.51c-1.19.76-1.26,2-1.26,3.07a66.07,66.07,0,0,0,.37,7.2,4.39,4.39,0,0,0,2.3,3,21.89,21.89,0,0,0,6.88,2.68c2.44.59,4.86,1.26,7.27,1.94a4.37,4.37,0,0,1,2.81,2.1,37.5,37.5,0,0,0,2.26,3.45,10.38,10.38,0,0,1,1.62,5.22,21.42,21.42,0,0,1,.09,2.57A7.87,7.87,0,0,0,100.78,58c1.14,1.81,2.35,3.59,3.44,5.43a18.92,18.92,0,0,1,1.39,3.08,12.36,12.36,0,0,0,3.2,4.76,21,21,0,0,1,4.52,5.76c.88,1.74,1.76,3.49,2.76,5.16,1.71,2.85,3.45,5.68,5.29,8.44a6.91,6.91,0,0,0,4.07,2.8c2.5.67,5,1.28,7.5,2a8.41,8.41,0,0,1,2.75,1.28A4.1,4.1,0,0,1,137.39,99a5.32,5.32,0,0,1-.38,4.34,9.38,9.38,0,0,0-.57,1.72c-.56,1.34-1.14,1.6-2.58,1.23-.41-.11-.83-.18-1.24-.27a7,7,0,0,0,.33,1.29c.51,1.1,1.14,2.14,1.6,3.25a23.29,23.29,0,0,1,1.51,4.27c.11.55-.41.62-1,.5a9.71,9.71,0,0,1-4-3c-2-2.62-3.93-5.32-5.89-8-.21-.29-.41-.59-.64-.86a3,3,0,0,0-.48-.38c-.11.2-.3.4-.31.61,0,1,.06,2,0,3-.14,1.9-.73,3.59-2.74,4.3-1.86.66-3.73,1.3-5.61,1.89-2.36.75-4.73,1.42-6.74,3a9.4,9.4,0,0,1-5.55,1.85q-5.63.22-11.28.25c-2.15,0-4.31-.12-6.46-.26-9.46-.61-18.93-.22-28.39-.32-2.82,0-5.65.1-8.47.08-3.79,0-7.58-.08-11.37-.22-2.45-.1-4.91-.33-7.35-.61a8.19,8.19,0,0,1-4-2.12c-1.22-1-2.56-1.79-3.86-2.66a1.39,1.39,0,0,0-.7-.24c-1.81,0-3-1.15-4.27-2.27-.95-.86-2-1.58-3-2.37a.84.84,0,0,1-.31-.36c-.25-.87-.46-1.76-.72-2.63-.09-.3-.21-.79-.38-.82a1.52,1.52,0,0,0-1.13.25c-1.25,1.2-2.44,2.46-3.65,3.7a54.86,54.86,0,0,1-4,4,9,9,0,0,1-2.94,1.46c-.54.2-.91-.41-.8-.82a9.41,9.41,0,0,1,1-2.5A29,29,0,0,1,2.92,107a1.47,1.47,0,0,0,.26-.89c0-.09-.45-.24-.7-.25A2.28,2.28,0,0,1,0,103.5a26.39,26.39,0,0,1,.31-3.37,8.53,8.53,0,0,0,.14-1.89,1.42,1.42,0,0,1,.67-1.4c1.38-1.13,2.73-2.3,4.16-3.36A3.58,3.58,0,0,1,7,92.89a12.43,12.43,0,0,0,8.75-4.78c1.83-2.33,3.37-4.89,5-7.37,1.77-2.69,3.39-5.49,5.85-7.65a39.31,39.31,0,0,0,3.06-2.5,12.2,12.2,0,0,0,2-3.08,59.23,59.23,0,0,1,3.71-6.88A27.44,27.44,0,0,0,37.74,56a4.91,4.91,0,0,0,.06-2.44,8.75,8.75,0,0,1,.88-5.14c.9-1.91,1.92-3.77,3-5.59a3,3,0,0,1,1.46-1.13c2.15-.78,4.36-1.38,6.49-2.21a35.51,35.51,0,0,0,4.8-2.36c1.81-1,3.51-2.26,5.28-3.39a1.57,1.57,0,0,0,.75-1.47c0-2.63,0-5.26,0-7.89a3.72,3.72,0,0,0-.58-1.66,46.67,46.67,0,0,1-2.49-4.16,4.27,4.27,0,0,1,.23-4.21,2.83,2.83,0,0,0,.34-1.7c-.48-4.56.69-8.46,4.62-11.14A8.64,8.64,0,0,1,68.53.07Zm49.81,96.6.12-.34a6.66,6.66,0,0,0-.94-1c-1.15-.79-2.39-1.46-3.51-2.3a45.91,45.91,0,0,1-6.63-6.44A53.11,53.11,0,0,1,100,76.3a52.77,52.77,0,0,0-6.31-8.76c-1-1.27-1.9-2.69-2.84-4-.17-.25-.36-.48-.54-.72a2.85,2.85,0,0,0-.56.76c-.32,1.05-.57,2.13-.86,3.19-.54,2-1.18,4-1.62,6.07a33.2,33.2,0,0,0-.61,9.47c0,.47.1.93.16,1.4.44,3.56.87,7.13,1.37,10.68a1.38,1.38,0,0,0,.89.91c2.3.41,4.62.85,6.94,1,2.61.21,5.24.2,7.87.24,4.07.06,8.13.08,12.2.12ZM19.67,93.59l.19.37a20,20,0,0,1,2-.21,85.1,85.1,0,0,1,13,.83c3.11.44,6.27.61,9.42.75A30.49,30.49,0,0,0,49,95a1.22,1.22,0,0,0,.84-.75c.53-2.45,1-4.92,1.44-7.39a38.08,38.08,0,0,0,.23-11.64,31.85,31.85,0,0,0-2.07-7.39c-.56-1.4-1-2.86-1.5-4.28a4.06,4.06,0,0,0-.54-.81,4.58,4.58,0,0,0-.65.77,19,19,0,0,1-1.15,2.35,32.2,32.2,0,0,1-3.21,4,49.94,49.94,0,0,0-6.65,9.22,23.61,23.61,0,0,1-5,5.87c-2.83,2.32-5.82,4.45-8.72,6.68C21.21,92.23,20.45,92.93,19.67,93.59ZM132.82,98.5a2.63,2.63,0,0,0-1.1,1.37,2.55,2.55,0,0,0,1.81,3.41,1.44,1.44,0,0,0,1.16-.28,5.38,5.38,0,0,0,.83-2,1.49,1.49,0,0,0-.31-1.08A4.31,4.31,0,0,0,132.82,98.5ZM2.34,102.22l.17.2a.57.57,0,0,0,.7.14,2.59,2.59,0,0,0,.78-.68,17.54,17.54,0,0,0,.83-1.68.85.85,0,0,0-.4-1.31c-.35-.18-1.11-.19-1.3,0a7.45,7.45,0,0,0-.83,1.32A2,2,0,0,0,2.34,102.22Z"/></g></g></svg>