<svg xmlns="http://www.w3.org/2000/svg" viewBox="0 0 233.59 200.22"><defs><style>.cls-1{fill:#0f1216;}</style></defs><title>Asset 73</title><g id="Layer_2" data-name="Layer 2"><g id="Layer_26" data-name="Layer 26"><path class="cls-1" d="M116.26.11a13.07,13.07,0,0,1,8.95,2.12A13.5,13.5,0,0,1,130,7.64a21.53,21.53,0,0,1,2.29,10.15,33.29,33.29,0,0,0,.4,4.45,2.85,2.85,0,0,0,.58,1.56c2.1,2.15,1.17,4.56.58,6.87A32.6,32.6,0,0,1,132,35.54a5.7,5.7,0,0,1-1.61,2.57c-2,1.29-2.14,3.31-2.13,5.2a112.09,112.09,0,0,0,.62,12.21c.26,2.26,2,3.85,3.91,5.07a37.15,37.15,0,0,0,11.68,4.55c4.14,1,8.24,2.14,12.33,3.29A7.42,7.42,0,0,1,161.59,72a63.62,63.62,0,0,0,3.83,5.85c1.9,2.66,2.44,5.72,2.75,8.85a36.34,36.34,0,0,1,.15,4.36c-.06,2.82,1.22,5.15,2.65,7.42,1.94,3.08,4,6.09,5.84,9.22a32.1,32.1,0,0,1,2.36,5.22,21,21,0,0,0,5.43,8.08,35.62,35.62,0,0,1,7.66,9.78c1.49,3,3,5.92,4.68,8.76,2.89,4.83,5.85,9.64,9,14.32a11.73,11.73,0,0,0,6.9,4.75c4.24,1.13,8.52,2.17,12.73,3.41a14.27,14.27,0,0,1,4.66,2.17c1.24,1,2.7,2.42,2.87,3.8.45,2.08,1.05,4.85-.64,7.36-.55.81-.57,2-1,2.91-.94,2.28-1.93,2.72-4.38,2.09-.7-.18-1.41-.3-2.11-.45a11.92,11.92,0,0,0,.56,2.19c.86,1.86,1.93,3.63,2.71,5.52a39.52,39.52,0,0,1,2.56,7.24c.18.93-.69,1.05-1.64.85a16.47,16.47,0,0,1-6.79-5.09c-3.41-4.45-6.67-9-10-13.54-.36-.49-.69-1-1.08-1.46a5,5,0,0,0-.81-.64c-.18.34-.51.68-.52,1,0,1.69.1,3.39,0,5.07-.24,3.23-1.24,6.09-4.66,7.3-3.15,1.12-6.32,2.2-9.51,3.21-4,1.27-8,2.41-11.44,5.09A15.94,15.94,0,0,1,175,199.8q-9.56.38-19.13.42c-3.65,0-7.31-.21-11-.44-16-1-32.11-.38-48.16-.54-4.79,0-9.58.16-14.37.13-6.43,0-12.87-.13-19.29-.38-4.16-.16-8.32-.56-12.46-1-2.69-.31-4.77-2-6.85-3.59s-4.34-3-6.54-4.51a2.36,2.36,0,0,0-1.18-.41c-3.07-.08-5.13-1.95-7.24-3.85-1.61-1.45-3.41-2.69-5.12-4a1.43,1.43,0,0,1-.52-.62c-.43-1.48-.79-3-1.21-4.46-.15-.5-.36-1.35-.64-1.38a2.57,2.57,0,0,0-1.91.43c-2.12,2-4.14,4.17-6.19,6.28a93.08,93.08,0,0,1-6.78,6.86,15.18,15.18,0,0,1-5,2.47c-.92.33-1.55-.69-1.36-1.39a16,16,0,0,1,1.64-4.24,49.18,49.18,0,0,1,3.29-4A2.49,2.49,0,0,0,5.4,180c0-.16-.77-.4-1.19-.43-2.54-.17-4.05-1.45-4.14-4a44.78,44.78,0,0,1,.52-5.72,14.47,14.47,0,0,0,.24-3.2A2.41,2.41,0,0,1,2,164.3c2.34-1.91,4.64-3.89,7.06-5.7a6.07,6.07,0,0,1,2.88-1,21.1,21.1,0,0,0,14.84-8.11c3.1-4,5.71-8.29,8.48-12.5,3-4.56,5.76-9.32,9.92-13,1.68-1.48,3.69-2.62,5.19-4.25a20.69,20.69,0,0,0,3.41-5.23,100.5,100.5,0,0,1,6.3-11.67,46.55,46.55,0,0,0,4-7.81,8.33,8.33,0,0,0,.1-4.14,14.85,14.85,0,0,1,1.49-8.73c1.53-3.24,3.25-6.4,5.07-9.49a5,5,0,0,1,2.48-1.91c3.64-1.33,7.4-2.33,11-3.75a60.25,60.25,0,0,0,8.14-4c3.06-1.78,6-3.84,9-5.75a2.67,2.67,0,0,0,1.26-2.5c0-4.46,0-8.93-.06-13.39a6.31,6.31,0,0,0-1-2.81c-1.37-2.38-3.13-4.58-4.23-7.06a7.25,7.25,0,0,1,.39-7.14,4.81,4.81,0,0,0,.57-2.89c-.81-7.74,1.17-14.35,7.84-18.9A14.66,14.66,0,0,1,116.26.11ZM200.78,164l.2-.58a11.29,11.29,0,0,0-1.6-1.65c-2-1.34-4.06-2.48-6-3.9a77.89,77.89,0,0,1-11.24-10.93,90.11,90.11,0,0,1-12.51-17.48c-2.89-5.47-6.81-10.14-10.71-14.86-1.77-2.15-3.22-4.56-4.83-6.84-.29-.42-.61-.82-.91-1.23a4.84,4.84,0,0,0-1,1.29c-.54,1.79-1,3.61-1.45,5.41-.92,3.43-2,6.83-2.75,10.3a56.33,56.33,0,0,0-1,16.07c.06.79.17,1.58.27,2.37.75,6,1.47,12.09,2.32,18.12a2.33,2.33,0,0,0,1.51,1.54c3.91.7,7.83,1.45,11.78,1.77,4.43.36,8.9.34,13.35.41,6.9.1,13.8.14,20.7.2C198.23,164,199.51,164,200.78,164ZM33.37,158.79l.33.62a33.85,33.85,0,0,1,3.37-.36,144.39,144.39,0,0,1,22,1.42c5.28.75,10.64,1,16,1.28a51.74,51.74,0,0,0,8.11-.56,2.07,2.07,0,0,0,1.43-1.27c.89-4.16,1.72-8.35,2.44-12.55a64.61,64.61,0,0,0,.4-19.74,54,54,0,0,0-3.5-12.54c-.94-2.38-1.66-4.85-2.54-7.26a6.89,6.89,0,0,0-.92-1.38,7.77,7.77,0,0,0-1.1,1.31,32.31,32.31,0,0,1-2,4A54.64,54.64,0,0,1,72,118.48c-4.6,4.63-7.89,10.18-11.28,15.64a40.06,40.06,0,0,1-8.52,10c-4.8,3.94-9.87,7.55-14.8,11.34C36,156.48,34.7,157.66,33.37,158.79Zm192,8.33a4.46,4.46,0,0,0-1.87,2.33,4.33,4.33,0,0,0,3.07,5.79,2.44,2.44,0,0,0,2-.48,9.12,9.12,0,0,0,1.41-3.47,2.52,2.52,0,0,0-.52-1.83A7.32,7.32,0,0,0,225.36,167.11ZM4,173.43l.29.34a1,1,0,0,0,1.18.24,4.39,4.39,0,0,0,1.33-1.15A29.75,29.75,0,0,0,8.19,170a1.45,1.45,0,0,0-.68-2.22c-.6-.31-1.88-.32-2.21.08a12.65,12.65,0,0,0-1.4,2.24A3.45,3.45,0,0,0,4,173.43Z"/></g></g></svg>