<svg xmlns="http://www.w3.org/2000/svg" xmlns:xlink="http://www.w3.org/1999/xlink" width="100" zoomAndPan="magnify" viewBox="0 0 75 74.999997" height="100" preserveAspectRatio="xMidYMid meet" version="1.0"><path fill="#fff" d="M 73.925781 11.734375 L 62.566406 65.15625 C 62.007812 67.800781 58.855469 68.980469 56.664062 67.40625 L 29.613281 47.273438 L 59.476562 20.28125 C 59.476562 20.28125 61.5 18.652344 60.9375 18.144531 C 60.320312 17.527344 58.125 18.875 56.945312 19.664062 C 55.820312 20.449219 20.394531 42.832031 20.394531 42.832031 L 2.511719 37.207031 C 0.484375 36.589844 0.484375 33.835938 3.410156 32.597656 L 69.429688 7.179688 C 72.242188 5.773438 74.546875 9.035156 73.925781 11.734375 Z M 73.925781 11.734375 " fill-opacity="1" fill-rule="nonzero"/><path fill="#fff" d="M 46.765625 104.238281 C 9.988281 104.238281 -19.984375 74.324219 -19.984375 37.488281 C -19.984375 0.714844 9.988281 -29.261719 46.765625 -29.261719 C 83.601562 -29.261719 113.515625 0.714844 113.515625 37.488281 C 113.515625 74.324219 83.601562 104.238281 46.765625 104.238281 Z M 46.765625 -25.605469 C 11.957031 -25.605469 -16.328125 2.679688 -16.328125 37.488281 C -16.328125 72.300781 11.957031 100.585938 46.765625 100.585938 C 81.574219 100.585938 109.859375 72.300781 109.859375 37.488281 C 109.859375 2.679688 81.574219 -25.605469 46.765625 -25.605469 Z M 46.765625 -25.605469 " fill-opacity="1" fill-rule="nonzero"/></svg>