<svg xmlns="http://www.w3.org/2000/svg" viewBox="0 0 735.23 320.76"><defs><style>.cls-1{fill:none;stroke:#2fcf8f;stroke-miterlimit:10;}.cls-2{fill:#2fcf8f;}.cls-3{font-size:18.02px;fill:#050505;font-family:ArialMT, Arial;}</style></defs><title>Asset 88</title><g id="Layer_2" data-name="Layer 2"><g id="Layer_26" data-name="Layer 26"><line class="cls-1" x1="26.32" y1="13.39" x2="26.32" y2="315.46"/><line class="cls-1" x1="26.32" y1="96.62" x2="43.78" y2="96.62"/><rect class="cls-1" x="44.01" y="82.5" width="69.61" height="28.23" rx="5" ry="5"/><polygon class="cls-2" points="115.95 26.77 0 26.77 13.97 13.39 0 0 115.95 0 129.92 13.39 115.95 26.77"/><line class="cls-1" x1="26.32" y1="166.46" x2="43.78" y2="166.46"/><rect class="cls-1" x="44.01" y="152.35" width="69.61" height="28.23" rx="5" ry="5"/><line class="cls-1" x1="26.32" y1="236.31" x2="43.78" y2="236.31"/><rect class="cls-1" x="44.01" y="222.19" width="69.61" height="28.23" rx="5" ry="5"/><line class="cls-1" x1="26.32" y1="306.15" x2="43.78" y2="306.15"/><rect class="cls-1" x="44.01" y="292.04" width="69.61" height="28.23" rx="5" ry="5"/><line class="cls-1" x1="177.64" y1="13.39" x2="177.64" y2="315.46"/><line class="cls-1" x1="177.64" y1="96.62" x2="195.11" y2="96.62"/><rect class="cls-1" x="195.33" y="82.5" width="69.61" height="28.23" rx="5" ry="5"/><polygon class="cls-2" points="267.28 26.77 151.33 26.77 165.3 13.39 151.33 0 267.28 0 281.25 13.39 267.28 26.77"/><line class="cls-1" x1="177.64" y1="166.46" x2="195.11" y2="166.46"/><rect class="cls-1" x="195.33" y="152.35" width="69.61" height="28.23" rx="5" ry="5"/><line class="cls-1" x1="177.64" y1="236.31" x2="195.11" y2="236.31"/><rect class="cls-1" x="195.33" y="222.19" width="69.61" height="28.23" rx="5" ry="5"/><line class="cls-1" x1="177.64" y1="306.15" x2="195.11" y2="306.15"/><rect class="cls-1" x="195.33" y="292.04" width="69.61" height="28.23" rx="5" ry="5"/><line class="cls-1" x1="328.97" y1="13.39" x2="328.97" y2="315.46"/><line class="cls-1" x1="328.97" y1="96.62" x2="346.43" y2="96.62"/><rect class="cls-1" x="346.66" y="82.5" width="69.61" height="28.23" rx="5" ry="5"/><polygon class="cls-2" points="418.61 26.77 302.66 26.77 316.63 13.39 302.66 0 418.61 0 432.57 13.39 418.61 26.77"/><line class="cls-1" x1="328.97" y1="166.46" x2="346.43" y2="166.46"/><rect class="cls-1" x="346.66" y="152.35" width="69.61" height="28.23" rx="5" ry="5"/><line class="cls-1" x1="328.97" y1="236.31" x2="346.43" y2="236.31"/><rect class="cls-1" x="346.66" y="222.19" width="69.61" height="28.23" rx="5" ry="5"/><line class="cls-1" x1="328.97" y1="306.15" x2="346.43" y2="306.15"/><rect class="cls-1" x="346.66" y="292.04" width="69.61" height="28.23" rx="5" ry="5"/><line class="cls-1" x1="480.3" y1="13.39" x2="480.3" y2="315.46"/><line class="cls-1" x1="480.3" y1="96.62" x2="497.76" y2="96.62"/><rect class="cls-1" x="497.99" y="82.5" width="69.61" height="28.23" rx="5" ry="5"/><polygon class="cls-2" points="569.94 26.77 453.99 26.77 467.96 13.39 453.99 0 569.94 0 583.9 13.39 569.94 26.77"/><line class="cls-1" x1="480.3" y1="166.46" x2="497.76" y2="166.46"/><rect class="cls-1" x="497.99" y="152.35" width="69.61" height="28.23" rx="5" ry="5"/><line class="cls-1" x1="480.3" y1="236.31" x2="497.76" y2="236.31"/><rect class="cls-1" x="497.99" y="222.19" width="69.61" height="28.23" rx="5" ry="5"/><line class="cls-1" x1="480.3" y1="306.15" x2="497.76" y2="306.15"/><rect class="cls-1" x="497.99" y="292.04" width="69.61" height="28.23" rx="5" ry="5"/><line class="cls-1" x1="631.63" y1="13.39" x2="631.63" y2="315.46"/><line class="cls-1" x1="631.63" y1="96.62" x2="649.09" y2="96.62"/><rect class="cls-1" x="649.32" y="82.5" width="69.61" height="28.23" rx="5" ry="5"/><polygon class="cls-2" points="721.26 26.77 605.32 26.77 619.28 13.39 605.32 0 721.26 0 735.23 13.39 721.26 26.77"/><line class="cls-1" x1="631.63" y1="166.46" x2="649.09" y2="166.46"/><rect class="cls-1" x="649.32" y="152.35" width="69.61" height="28.23" rx="5" ry="5"/><line class="cls-1" x1="631.63" y1="236.31" x2="649.09" y2="236.31"/><rect class="cls-1" x="649.32" y="222.19" width="69.61" height="28.23" rx="5" ry="5"/><line class="cls-1" x1="631.63" y1="306.15" x2="649.09" y2="306.15"/><rect class="cls-1" x="649.32" y="292.04" width="69.61" height="28.23" rx="5" ry="5"/><text class="cls-3" transform="translate(628.21 18.19)">Expansion</text><text class="cls-3" transform="translate(480.38 18.19)">Retention</text><text class="cls-3" transform="translate(332.07 18.19)">Adoption</text><text class="cls-3" transform="translate(172.74 18.19)">Acquisition</text><text class="cls-3" transform="translate(22.89 18.73)">Evaluation</text></g></g></svg>