<svg xmlns="http://www.w3.org/2000/svg" viewBox="0 0 310.82 266.39"><defs><style>.cls-1{fill:none;stroke:#2fcf8f;stroke-miterlimit:10;}.cls-2{fill:#2fcf8f;}.cls-3{font-size:11.01px;}.cls-3,.cls-4,.cls-5,.cls-6,.cls-7{fill:#050505;font-family:ArialMT, Arial;}.cls-4{font-size:12.01px;}.cls-5{font-size:13.01px;}.cls-6{font-size:14.01px;}.cls-7{font-size:15.31px;}</style></defs><title>Asset 89</title><g id="Layer_2" data-name="Layer 2"><g id="Layer_26" data-name="Layer 26"><line class="cls-1" x1="16.32" y1="13.43" x2="16.32" y2="264.23"/><line class="cls-1" x1="16.32" y1="82.53" x2="26.84" y2="83.12"/><path class="cls-1" d="M61.19,96.17,32.84,95C29.62,94.82,27,92.53,27,89.88V76.37c0-2.66,2.65-4.65,5.86-4.43l28.35,1.93c3,.2,5.43,2.45,5.43,5V91.78C66.63,94.32,64.19,96.3,61.19,96.17Z"/><polygon class="cls-2" points="67.89 30.64 0 22.62 8.73 12.45 0 0 67.89 9.65 75.42 21.12 67.89 30.64"/><line class="cls-1" x1="16.32" y1="140.52" x2="26.84" y2="140.44"/><path class="cls-1" d="M61.19,151.35l-28.35.56c-3.22.06-5.86-2.06-5.86-4.72v-13.5c0-2.66,2.65-4.82,5.86-4.8l28.35.15c3,0,5.43,2.11,5.43,4.65v12.92C66.63,149.16,64.19,151.29,61.19,151.35Z"/><line class="cls-1" x1="16.32" y1="198.51" x2="26.84" y2="197.77"/><path class="cls-1" d="M61.19,206.52l-28.35,2.34c-3.22.27-5.86-1.69-5.86-4.35V191c0-2.66,2.65-5,5.86-5.17l28.35-1.62c3-.17,5.43,1.77,5.43,4.31v12.92C66.63,204,64.19,206.27,61.19,206.52Z"/><line class="cls-1" x1="16.32" y1="256.49" x2="26.84" y2="255.1"/><path class="cls-1" d="M61.19,261.69l-28.35,4.12c-3.22.47-5.86-1.32-5.86-4v-13.5c0-2.66,2.65-5.15,5.86-5.54l28.35-3.4c3-.36,5.43,1.43,5.43,4v12.92C66.63,258.83,64.19,261.26,61.19,261.69Z"/><line class="cls-1" x1="100.18" y1="24.34" x2="100.18" y2="252.41"/><line class="cls-1" x1="100.18" y1="87.18" x2="108.89" y2="87.67"/><path class="cls-1" d="M137.45,99.43l-23.59-1A4.92,4.92,0,0,1,109,93.82V81.53a4.3,4.3,0,0,1,4.86-4.07l23.59,1.61A4.78,4.78,0,0,1,142,83.6V95.4A4.18,4.18,0,0,1,137.45,99.43Z"/><polygon class="cls-2" points="143.04 39.52 86.7 32.86 93.91 23.53 86.7 12.32 143.04 20.33 149.34 30.74 143.04 39.52"/><line class="cls-1" x1="100.18" y1="139.91" x2="108.89" y2="139.85"/><path class="cls-1" d="M137.45,149.83l-23.59.47A4.56,4.56,0,0,1,109,146V133.71a4.64,4.64,0,0,1,4.86-4.37l23.59.13a4.43,4.43,0,0,1,4.54,4.25v11.8A4.51,4.51,0,0,1,137.45,149.83Z"/><line class="cls-1" x1="100.18" y1="192.65" x2="108.89" y2="192.04"/><path class="cls-1" d="M137.45,200.22l-23.59,1.95a4.23,4.23,0,0,1-4.86-4V185.88a5,5,0,0,1,4.86-4.68l23.59-1.35a4.11,4.11,0,0,1,4.54,4v11.8A4.87,4.87,0,0,1,137.45,200.22Z"/><line class="cls-1" x1="100.18" y1="245.38" x2="108.89" y2="244.22"/><path class="cls-1" d="M137.45,250.62,113.86,254c-2.67.39-4.86-1.27-4.86-3.69V238.06a5.41,5.41,0,0,1,4.86-5l23.59-2.83a3.82,3.82,0,0,1,4.54,3.68v11.8A5.27,5.27,0,0,1,137.45,250.62Z"/><line class="cls-1" x1="170.1" y1="33.44" x2="170.1" y2="242.55"/><line class="cls-1" x1="170.1" y1="91.06" x2="177.43" y2="91.47"/><path class="cls-1" d="M201.55,102.18l-19.93-.85a4.3,4.3,0,0,1-4.1-4.21V85.83a3.76,3.76,0,0,1,4.1-3.76l19.93,1.36a4.21,4.21,0,0,1,3.84,4.15V98.45A3.68,3.68,0,0,1,201.55,102.18Z"/><polygon class="cls-2" points="206.29 46.98 158.79 41.37 164.83 32.76 158.79 22.57 206.29 29.32 211.63 38.85 206.29 46.98"/><line class="cls-1" x1="170.1" y1="139.41" x2="177.43" y2="139.36"/><path class="cls-1" d="M201.55,148.55l-19.93.4a4,4,0,0,1-4.1-4V133.72a4.06,4.06,0,0,1,4.1-4l19.93.11a3.9,3.9,0,0,1,3.84,3.91v10.87A4,4,0,0,1,201.55,148.55Z"/><line class="cls-1" x1="170.1" y1="187.76" x2="177.43" y2="187.25"/><path class="cls-1" d="M201.55,194.93l-19.93,1.65a3.7,3.7,0,0,1-4.1-3.7V181.6a4.38,4.38,0,0,1,4.1-4.27l19.93-1.14a3.62,3.62,0,0,1,3.84,3.67v10.87A4.29,4.29,0,0,1,201.55,194.93Z"/><line class="cls-1" x1="170.1" y1="236.11" x2="177.43" y2="235.14"/><path class="cls-1" d="M201.55,241.31l-19.93,2.89a3.45,3.45,0,0,1-4.1-3.44V229.48a4.73,4.73,0,0,1,4.1-4.53l19.93-2.39a3.37,3.37,0,0,1,3.84,3.43v10.87A4.64,4.64,0,0,1,201.55,241.31Z"/><line class="cls-1" x1="229.29" y1="41.15" x2="229.29" y2="234.21"/><line class="cls-1" x1="229.29" y1="94.34" x2="235.54" y2="94.69"/><path class="cls-1" d="M256.19,104.51l-17.06-.73a3.83,3.83,0,0,1-3.5-3.88V89.48a3.35,3.35,0,0,1,3.5-3.49l17.06,1.16a3.77,3.77,0,0,1,3.3,3.83V101A3.3,3.3,0,0,1,256.19,104.51Z"/><polygon class="cls-2" points="260.25 53.36 219.66 48.56 224.81 40.56 219.66 31.22 260.25 36.99 264.84 45.77 260.25 53.36"/><line class="cls-1" x1="229.29" y1="138.98" x2="235.54" y2="138.94"/><path class="cls-1" d="M256.19,147.47l-17.06.34a3.55,3.55,0,0,1-3.5-3.66V133.72a3.61,3.61,0,0,1,3.5-3.71l17.06.09a3.49,3.49,0,0,1,3.3,3.62V143.8A3.55,3.55,0,0,1,256.19,147.47Z"/><line class="cls-1" x1="229.29" y1="183.62" x2="235.54" y2="183.18"/><path class="cls-1" d="M256.19,190.42l-17.06,1.41a3.29,3.29,0,0,1-3.5-3.44V178a3.9,3.9,0,0,1,3.5-3.93l17.06-1a3.24,3.24,0,0,1,3.3,3.42v10.07A3.84,3.84,0,0,1,256.19,190.42Z"/><line class="cls-1" x1="229.29" y1="228.26" x2="235.54" y2="227.43"/><path class="cls-1" d="M256.19,233.38l-17.06,2.48a3.07,3.07,0,0,1-3.5-3.22V222.21a4.21,4.21,0,0,1,3.5-4.15l17.06-2a3,3,0,0,1,3.3,3.21v10.07A4.15,4.15,0,0,1,256.19,233.38Z"/><line class="cls-1" x1="280.05" y1="47.75" x2="280.05" y2="227.06"/><line class="cls-1" x1="280.05" y1="97.16" x2="285.44" y2="97.45"/><path class="cls-1" d="M303.31,106.53l-14.77-.63a3.45,3.45,0,0,1-3-3.6V92.62a3,3,0,0,1,3-3.26l14.77,1a3.42,3.42,0,0,1,2.86,3.55v9.38A3,3,0,0,1,303.31,106.53Z"/><polygon class="cls-2" points="306.84 58.86 271.75 54.72 276.18 47.25 271.75 38.62 306.84 43.61 310.82 51.75 306.84 58.86"/><line class="cls-1" x1="280.05" y1="138.61" x2="285.44" y2="138.58"/><path class="cls-1" d="M303.31,146.53l-14.77.29a3.2,3.2,0,0,1-3-3.41v-9.68a3.26,3.26,0,0,1,3-3.45l14.77.08a3.17,3.17,0,0,1,2.86,3.37v9.38A3.22,3.22,0,0,1,303.31,146.53Z"/><line class="cls-1" x1="280.05" y1="180.07" x2="285.44" y2="179.7"/><path class="cls-1" d="M303.31,186.53l-14.77,1.22a3,3,0,0,1-3-3.22v-9.68a3.52,3.52,0,0,1,3-3.64l14.77-.85a2.94,2.94,0,0,1,2.86,3.19v9.38A3.48,3.48,0,0,1,303.31,186.53Z"/><line class="cls-1" x1="280.05" y1="221.53" x2="285.44" y2="220.82"/><path class="cls-1" d="M303.31,226.53l-14.77,2.15a2.77,2.77,0,0,1-3-3V216a3.8,3.8,0,0,1,3-3.83l14.77-1.77c1.58-.19,2.86,1.17,2.86,3v9.38A3.76,3.76,0,0,1,303.31,226.53Z"/><text class="cls-3" transform="matrix(0.49, 0.06, -0.11, 0.99, 279.99, 51.05)">Expansion</text><text class="cls-4" transform="matrix(0.49, 0.06, -0.11, 0.99, 230.13, 44.59)">Retention</text><text class="cls-5" transform="matrix(0.49, 0.06, -0.11, 0.99, 173.59, 37.93)">Adoption</text><text class="cls-6" transform="matrix(0.49, 0.06, -0.11, 0.99, 102.97, 29.77)">Acquisition</text><text class="cls-7" transform="matrix(0.49, 0.06, -0.11, 0.99, 22.4, 19.44)">Evaluation</text></g></g></svg>