<svg xmlns="http://www.w3.org/2000/svg" viewBox="0 0 197.39 177.67"><defs><style>.cls-1{fill:#2fcf8f;}.cls-2{fill:none;stroke:#fff;stroke-miterlimit:10;stroke-width:3px;}</style></defs><title>Asset 1</title><g id="Layer_2" data-name="Layer 2"><g id="Layer_26" data-name="Layer 26"><g id="Layer_28" data-name="Layer 28"><rect class="cls-1" width="81.31" height="63.03" rx="20" ry="20"/><path class="cls-1" d="M55.24,58.36a56.21,56.21,0,0,0,0,19.45s-11.67,3.5-21.4-19.45,21.4-7,21.4-7Z"/><line class="cls-2" x1="56.61" y1="20.62" x2="24.7" y2="20.62"/><line class="cls-2" x1="56.61" y1="31.51" x2="24.7" y2="31.51"/><line class="cls-2" x1="56.61" y1="42.41" x2="24.7" y2="42.41"/><rect class="cls-1" x="56.91" y="117.67" width="62.55" height="48.48" rx="13.76" ry="13.76"/><path class="cls-1" d="M99.41,162.56a43.24,43.24,0,0,0,0,15s-9,2.69-16.46-15,16.46-5.39,16.46-5.39Z"/><line class="cls-2" x1="100.46" y1="133.54" x2="75.92" y2="133.54"/><line class="cls-2" x1="100.46" y1="141.92" x2="75.92" y2="141.92"/><line class="cls-2" x1="100.46" y1="150.29" x2="75.92" y2="150.29"/><rect class="cls-1" x="124.42" y="49.82" width="72.97" height="56.56" rx="16.16" ry="16.16"/><path class="cls-1" d="M147.81,102.2a50.44,50.44,0,0,1,0,17.46s10.47,3.14,19.2-17.46-19.2-6.28-19.2-6.28Z"/><line class="cls-2" x1="146.59" y1="68.33" x2="175.22" y2="68.33"/><line class="cls-2" x1="146.59" y1="78.1" x2="175.22" y2="78.1"/><line class="cls-2" x1="146.59" y1="87.88" x2="175.22" y2="87.88"/></g></g></g></svg>