<svg xmlns="http://www.w3.org/2000/svg" viewBox="0 0 1099.1 1146.26"><defs><style>.cls-1{fill:none;}.cls-2{fill:#50cd89;}.cls-3{fill:#7239ea;}.cls-4{fill:#ffc700;}.cls-5{fill:#009ef7;}.cls-6{fill:#f1416c;}.cls-7{font-size:55.79px;fill:#fff;font-family:Arial-BoldMT, Arial;font-weight:700;}</style></defs><title>Asset 90</title><g id="Layer_2" data-name="Layer 2"><g id="Layer_26" data-name="Layer 26"><path class="cls-1" d="M291.44,317.05a356.3,356.3,0,0,0-77,98c-55.5,103.7-54.57,222.52-7.9,321.27A357,357,0,0,0,571.55,938c111.68-13.45,215.26-79.31,272.37-186A357.41,357.41,0,0,0,877,664c.16-.69.35-1.38.51-2.08,32.38-143.41-27-295.84-154.22-378.06q-12.41-8-25.68-15.14C561.82,196.07,400.07,220.15,291.44,317.05Z"/><path class="cls-2" d="M1039.44,701.47C1087.77,493,1003.52,271,821,148.76l7.45,105.67-89.65,40.1c114.33,82.72,167.72,224.66,140.28,359.86l68.44,77.79Z"/><path class="cls-3" d="M940.27,759.11l-67.93-77.21A357.74,357.74,0,0,1,843.92,752c-55.14,103-153.6,168-260.85,184.43L522.73,1028,583,1104.35c167-17.4,322.66-114.6,407.85-273.76a524.92,524.92,0,0,0,41.55-102.26Z"/><path class="cls-4" d="M553.06,939.71A356.9,356.9,0,0,1,210.15,743.61l-100-23.19L56.08,807.88a523.7,523.7,0,0,0,499,298.63l-61-77.31Z"/><path class="cls-5" d="M796.63,133.36q-10-5.95-20.37-11.51C581.79,17.77,351.08,49,192,182.78l96.38,27.39,17,95.1c108.21-87,262.14-106.16,392.26-36.51,6.25,3.34,12.3,6.9,18.26,10.56l88.24-39.47Z"/><path class="cls-6" d="M171.39,201.09A522.66,522.66,0,0,0,67.52,336.42C-9.15,479.67-12.38,642.6,44.71,782.09L99.21,694,198.08,717C160,622.29,162.51,512,214.43,415a356.56,356.56,0,0,1,70.51-92L268,228.56Z"/><text class="cls-7" transform="matrix(0.54, 0.84, -0.84, 0.54, 871.2, 341.02)">A</text><text class="cls-7" transform="matrix(0.46, 0.89, -0.89, 0.46, 891.95, 373.42)">D</text><text class="cls-7" transform="matrix(0.37, 0.93, -0.93, 0.37, 909.68, 407.51)">O</text><text class="cls-7" transform="translate(925.08 446.17) rotate(73.43)">P</text><text class="cls-7" transform="translate(935.24 480.29) rotate(78.06)">T</text><text class="cls-7" transform="translate(941.84 512.59) rotate(81.28)">I</text><text class="cls-7" transform="translate(944.49 526.55) rotate(85.11)">O</text><text class="cls-7" transform="translate(948.05 567.91) rotate(90.58)">N</text><text class="cls-7" transform="translate(359.65 200.19) rotate(-21.09)">A</text><text class="cls-7" transform="matrix(0.96, -0.27, 0.27, 0.96, 395.53, 186.27)">C</text><text class="cls-7" transform="matrix(0.98, -0.18, 0.18, 0.98, 432.46, 175.6)">Q</text><text class="cls-7" transform="translate(473.31 168.07) rotate(-4.98)">U</text><text class="cls-7" transform="translate(512.21 165.04) rotate(-1.33)">I</text><text class="cls-7" transform="translate(526.51 164.34) rotate(2.12)">S</text><text class="cls-7" transform="matrix(1, 0.1, -0.1, 1, 562.48, 165.97)">I</text><text class="cls-7" transform="matrix(0.99, 0.15, -0.15, 0.99, 576.81, 167.07)">T</text><text class="cls-7" transform="translate(609.33 172.36) rotate(12.11)">I</text><text class="cls-7" transform="matrix(0.96, 0.28, -0.28, 0.96, 623.3, 174.84)">O</text><text class="cls-7" transform="matrix(0.93, 0.37, -0.37, 0.93, 663.21, 186.26)">N</text><text class="cls-7" transform="translate(602.79 1036.5) rotate(-11.58)">E</text><text class="cls-7" transform="translate(640.99 1028.67) rotate(-16.6)">N</text><text class="cls-7" transform="translate(681.45 1016.58) rotate(-22.03)">G</text><text class="cls-7" transform="translate(723.37 999.44) rotate(-27.47)">A</text><text class="cls-7" transform="matrix(0.84, -0.54, 0.54, 0.84, 760.84, 979.94)">G</text><text class="cls-7" transform="translate(798.71 955.13) rotate(-38.23)">E</text><text class="cls-7" transform="translate(829.55 931.01) rotate(-43.73)">M</text><text class="cls-7" transform="matrix(0.65, -0.76, 0.76, 0.65, 864.31, 897.31)">E</text><text class="cls-7" transform="matrix(0.58, -0.81, 0.81, 0.58, 889.77, 867.75)">N</text><text class="cls-7" transform="translate(914.09 833.51) rotate(-59.16)">T</text><text class="cls-7" transform="matrix(0.58, 0.82, -0.82, 0.58, 143.26, 832.15)">R</text><text class="cls-7" transform="translate(167.66 866.43) rotate(49.67)">E</text><text class="cls-7" transform="matrix(0.71, 0.71, -0.71, 0.71, 192.92, 895.99)">T</text><text class="cls-7" transform="matrix(0.76, 0.65, -0.65, 0.76, 218.19, 921.24)">E</text><text class="cls-7" transform="translate(247.96 946.45) rotate(35.2)">N</text><text class="cls-7" transform="translate(282.39 970.49) rotate(30.37)">T</text><text class="cls-7" transform="matrix(0.89, 0.46, -0.46, 0.89, 312.89, 988.02)">I</text><text class="cls-7" transform="translate(327.7 996.1) rotate(23.37)">O</text><text class="cls-7" transform="translate(369.38 1013.93) rotate(17.89)">N</text><text class="cls-7" transform="translate(111.25 614.99) rotate(-91.84)">E</text><text class="cls-7" transform="translate(110.03 579.47) rotate(-86.97)">X</text><text class="cls-7" transform="translate(111.84 543.98) rotate(-82.07)">P</text><text class="cls-7" transform="translate(115.9 512.73) rotate(-77.51)">A</text><text class="cls-7" transform="translate(124.14 475.15) rotate(-72.21)">N</text><text class="cls-7" transform="translate(135.91 438.44) rotate(-67.14)">S</text><text class="cls-7" transform="translate(150.17 405.37) rotate(-63.73)">I</text><text class="cls-7" transform="matrix(0.5, -0.87, 0.87, 0.5, 156, 392.4)">O</text><text class="cls-7" transform="matrix(0.58, -0.81, 0.81, 0.58, 176.78, 356.47)">N</text></g></g></svg>