<svg xmlns="http://www.w3.org/2000/svg" viewBox="0 0 615.8 604.78"><defs><style>.cls-1,.cls-8{fill:none;}.cls-1{stroke:#fff;stroke-miterlimit:10;stroke-width:2px;stroke-dasharray:3 3;}.cls-2{fill:#009ef7;}.cls-3{font-size:50.8px;font-family:MyriadPro-Semibold, Myriad Pro;}.cls-3,.cls-9{fill:#fff;font-weight:700;}.cls-4{fill:#50cd89;}.cls-5{fill:#7239ea;}.cls-6{fill:#ffc700;}.cls-7{fill:#f1416c;}.cls-9{font-size:24.01px;font-family:Arial-BoldMT, Arial;}</style></defs><title>Asset 101</title><g id="Layer_2" data-name="Layer 2"><g id="Layer_6" data-name="Layer 6"><circle class="cls-1" cx="307.56" cy="318.78" r="285"/><circle class="cls-2" cx="307.56" cy="35" r="35"/><text class="cls-3" transform="translate(293.95 49.91)">1</text><circle class="cls-4" cx="580.8" cy="229.5" r="35"/><text class="cls-3" transform="translate(567.18 244.41)">2</text><circle class="cls-5" cx="485.56" cy="541.92" r="35"/><text class="cls-3" transform="translate(471.94 556.83)">3</text><circle class="cls-6" cx="149.89" cy="556.83" r="35"/><text class="cls-3" transform="translate(136.27 571.74)">4</text><circle class="cls-7" cx="35" cy="244.41" r="35"/><text class="cls-3" transform="translate(21.38 259.32)">5</text><path class="cls-8" d="M205.26,204.12a153.63,153.63,0,1,0,252,149.32c.07-.3.15-.6.22-.89A153.74,153.74,0,0,0,391.1,189.85q-5.34-3.45-11.05-6.52A153.69,153.69,0,0,0,205.26,204.12Z"/><path class="cls-4" d="M527.14,369.55c20.8-89.72-15.46-185.26-94-237.85l3.21,45.47-38.58,17.25a153.77,153.77,0,0,1,60.37,154.86l29.45,33.48Z"/><path class="cls-5" d="M484.47,394.35l-29.23-33.23A153.62,153.62,0,0,1,330.75,470.64l-26,39.41,25.92,32.87A225.37,225.37,0,0,0,524.1,381.11Z"/><path class="cls-6" d="M317.84,472.07a153.59,153.59,0,0,1-147.56-84.39l-43-10L104,415.34A225.36,225.36,0,0,0,318.71,543.85l-26.24-33.27Z"/><path class="cls-2" d="M422.66,125.07q-4.31-2.56-8.77-5c-83.68-44.79-183-31.35-251.43,26.22l41.47,11.79L211.25,199a153.66,153.66,0,0,1,168.8-15.71c2.69,1.44,5.29,3,7.86,4.54l38-17Z"/><path class="cls-7" d="M153.6,154.22a225.45,225.45,0,0,0-54.52,250l23.45-37.9,42.55,9.87a153.8,153.8,0,0,1,37.38-169.52L195.19,166Z"/><text class="cls-9" transform="translate(454.77 214.4) rotate(57.49)">A</text><text class="cls-9" transform="translate(463.69 228.34) rotate(62.75)">D</text><text class="cls-9" transform="translate(471.33 243.02) rotate(68.2)">O</text><text class="cls-9" transform="translate(477.96 259.65) rotate(73.43)">P</text><text class="cls-9" transform="translate(482.33 274.34) rotate(78.06)">T</text><text class="cls-9" transform="translate(485.16 288.23) rotate(81.28)">I</text><text class="cls-9" transform="translate(486.31 294.23) rotate(85.11)">O</text><text class="cls-9" transform="translate(487.84 312.05) rotate(90.58)">N</text><text class="cls-9" transform="translate(234.63 153.8) rotate(-21.09)">A</text><text class="cls-9" transform="translate(250.07 147.8) rotate(-15.86)">C</text><text class="cls-9" transform="translate(265.98 143.21) rotate(-10.42)">Q</text><text class="cls-9" transform="translate(283.55 139.97) rotate(-4.98)">U</text><text class="cls-9" transform="translate(300.28 138.67) rotate(-1.33)">I</text><text class="cls-9" transform="translate(306.43 138.37) rotate(2.12)">S</text><text class="cls-9" transform="translate(321.93 139.07) rotate(5.59)">I</text><text class="cls-9" transform="translate(328.1 139.54) rotate(8.85)">T</text><text class="cls-9" transform="translate(342.09 141.82) rotate(12.12)">I</text><text class="cls-9" transform="matrix(0.96, 0.28, -0.28, 0.96, 348.09, 142.88)">O</text><text class="cls-9" transform="matrix(0.93, 0.37, -0.37, 0.93, 365.28, 147.8)">N</text><text class="cls-9" transform="translate(339.25 513.69) rotate(-11.58)">E</text><text class="cls-9" transform="matrix(0.96, -0.29, 0.29, 0.96, 355.7, 510.31)">N</text><text class="cls-9" transform="translate(373.11 505.11) rotate(-22.03)">G</text><text class="cls-9" transform="matrix(0.89, -0.46, 0.46, 0.89, 391.15, 497.74)">A</text><text class="cls-9" transform="matrix(0.84, -0.54, 0.54, 0.84, 407.28, 489.34)">G</text><text class="cls-9" transform="matrix(0.79, -0.62, 0.62, 0.79, 423.56, 478.68)">E</text><text class="cls-9" transform="translate(436.84 468.28) rotate(-43.73)">M</text><text class="cls-9" transform="matrix(0.65, -0.76, 0.76, 0.65, 451.8, 453.78)">E</text><text class="cls-9" transform="translate(462.75 441.07) rotate(-54.33)">N</text><text class="cls-9" transform="translate(473.23 426.33) rotate(-59.17)">T</text><text class="cls-9" transform="translate(141.51 425.73) rotate(54.76)">R</text><text class="cls-9" transform="translate(152 440.49) rotate(49.68)">E</text><text class="cls-9" transform="matrix(0.71, 0.71, -0.71, 0.71, 162.88, 453.22)">T</text><text class="cls-9" transform="translate(173.76 464.08) rotate(40.29)">E</text><text class="cls-9" transform="translate(186.57 474.93) rotate(35.2)">N</text><text class="cls-9" transform="translate(201.39 485.28) rotate(30.36)">T</text><text class="cls-9" transform="matrix(0.89, 0.46, -0.46, 0.89, 214.51, 492.82)">I</text><text class="cls-9" transform="translate(220.88 496.3) rotate(23.37)">O</text><text class="cls-9" transform="translate(238.82 503.97) rotate(17.89)">N</text><text class="cls-9" transform="matrix(-0.03, -1, 1, -0.03, 127.74, 332.3)">E</text><text class="cls-9" transform="translate(127.21 317) rotate(-86.96)">X</text><text class="cls-9" transform="translate(127.99 301.73) rotate(-82.07)">P</text><text class="cls-9" transform="translate(129.74 288.29) rotate(-77.51)">A</text><text class="cls-9" transform="translate(133.29 272.11) rotate(-72.21)">N</text><text class="cls-9" transform="matrix(0.39, -0.92, 0.92, 0.39, 138.36, 256.31)">S</text><text class="cls-9" transform="translate(144.49 242.08) rotate(-63.73)">I</text><text class="cls-9" transform="matrix(0.5, -0.87, 0.87, 0.5, 146.99, 236.52)">O</text><text class="cls-9" transform="translate(155.94 221.04) rotate(-54.47)">N</text></g></g></svg>