<svg xmlns="http://www.w3.org/2000/svg" viewBox="0 0 196.61 159.82"><defs><style>.cls-1{fill:#2fcf8f;}.cls-2{fill:none;stroke:#fff;stroke-miterlimit:10;stroke-width:3px;}</style></defs><title>Asset 86</title><g id="Layer_2" data-name="Layer 2"><g id="Layer_26" data-name="Layer 26"><g id="Layer_28" data-name="Layer 28"><path class="cls-1" d="M77.9,62.7l-50.21-2C12.77,60.11,0,50.6,0,39.59V16.54C0,5.52,12.77-1.72,27.69.35l50.21,7C89.91,9,99.35,17.9,99.35,27.19V46.65C99.35,55.95,89.91,63.18,77.9,62.7Z"/><path class="cls-1" d="M71.05,58.28a38.88,38.88,0,0,0,0,17.3s-13.66,3-25.56-18.51C33.1,34.7,71.05,52,71.05,52Z"/><line class="cls-2" x1="72.6" y1="24.87" x2="33.86" y2="20.75"/><line class="cls-2" x1="72.6" y1="34.54" x2="33.86" y2="31.08"/><line class="cls-2" x1="72.6" y1="44.2" x2="33.86" y2="41.41"/><path class="cls-1" d="M123.39,149.38,88.15,153.8c-8.26,1-15.2-3.58-15.2-10.29V124.92c0-6.71,6.94-12.54,15.2-12.95l35.24-1.74c7-.35,12.63,4.25,12.63,10.21V137C136,142.92,130.42,148.5,123.39,149.38Z"/><path class="cls-1" d="M117.4,147.2a30.24,30.24,0,0,0,0,12.22s-8.8,3.5-16.36-10.26C93.26,135,117.4,142.8,117.4,142.8Z"/><line class="cls-2" x1="118.4" y1="123.42" x2="93.73" y2="125.25"/><line class="cls-2" x1="118.4" y1="130.25" x2="93.73" y2="132.4"/><line class="cls-2" x1="118.4" y1="137.08" x2="93.73" y2="139.56"/><path class="cls-1" d="M153.42,98.66l31.71-.9a11.72,11.72,0,0,0,11.48-11.51V69.46a12.19,12.19,0,0,0-11.48-11.88l-31.71-1.92c-7.53-.46-13.87,4.85-13.87,11.8v19C139.54,93.37,145.88,98.87,153.42,98.66Z"/><path class="cls-1" d="M159.38,95.35a35,35,0,0,1,0,13.11s8.38,1.91,15.14-13.44c6.57-14.91-15.14-4.39-15.14-4.39Z"/><line class="cls-2" x1="158.38" y1="69.89" x2="180.7" y2="70.59"/><line class="cls-2" x1="158.38" y1="77.24" x2="180.7" y2="77.6"/><line class="cls-2" x1="158.38" y1="84.6" x2="180.7" y2="84.61"/></g></g></g></svg>