<svg xmlns="http://www.w3.org/2000/svg" viewBox="0 0 899.68 550.6"><defs><style>.cls-1{fill:#678977;}.cls-2{fill:none;stroke:#2fcf8f;stroke-miterlimit:10;stroke-width:4px;}.cls-3{font-size:70.24px;fill:#2fcf8f;font-family:ArialMT, Arial;}</style></defs><title>Asset 87</title><g id="Layer_2" data-name="Layer 2"><g id="Layer_26" data-name="Layer 26"><path class="cls-1" d="M869.65,0H30A30.12,30.12,0,0,0,0,30V520.57a30.12,30.12,0,0,0,30,30H869.65a30.12,30.12,0,0,0,30-30V30A30.12,30.12,0,0,0,869.65,0Z"/><rect class="cls-2" x="399.34" y="224.61" width="100.99" height="100.99" rx="5" ry="5"/><text class="cls-3" transform="translate(416.71 293.84)">AI</text><line class="cls-2" x1="449.84" y1="225.07" x2="449.84" y2="177.93"/><circle class="cls-2" cx="449.84" cy="170.22" r="7.4"/><line class="cls-2" x1="477.57" y1="225.07" x2="477.57" y2="200.11"/><circle class="cls-2" cx="477.57" cy="192.41" r="7.4"/><line class="cls-2" x1="422.11" y1="225.07" x2="422.11" y2="200.11"/><circle class="cls-2" cx="422.11" cy="192.41" r="7.4"/><line class="cls-2" x1="449.84" y1="325.53" x2="449.84" y2="372.68"/><circle class="cls-2" cx="449.84" cy="380.38" r="7.4"/><line class="cls-2" x1="422.11" y1="325.53" x2="422.11" y2="350.49"/><circle class="cls-2" cx="422.11" cy="358.19" r="7.4"/><line class="cls-2" x1="477.57" y1="325.53" x2="477.57" y2="350.49"/><circle class="cls-2" cx="477.57" cy="358.19" r="7.4"/><line class="cls-2" x1="500.07" y1="275.3" x2="547.21" y2="275.3"/><circle class="cls-2" cx="554.92" cy="275.3" r="7.4"/><line class="cls-2" x1="500.07" y1="303.04" x2="525.03" y2="303.04"/><circle class="cls-2" cx="532.73" cy="303.04" r="7.4"/><line class="cls-2" x1="500.07" y1="247.57" x2="525.03" y2="247.57"/><circle class="cls-2" cx="532.73" cy="247.57" r="7.4"/><line class="cls-2" x1="399.61" y1="275.3" x2="352.47" y2="275.3"/><circle class="cls-2" cx="344.76" cy="275.3" r="7.4"/><line class="cls-2" x1="399.61" y1="247.57" x2="374.65" y2="247.57"/><circle class="cls-2" cx="366.95" cy="247.57" r="7.4"/><line class="cls-2" x1="399.61" y1="303.04" x2="374.65" y2="303.04"/><circle class="cls-2" cx="366.95" cy="303.04" r="7.4"/></g></g></svg>