<svg xmlns="http://www.w3.org/2000/svg" viewBox="0 0 99.54 58.32"><defs><style>.cls-1{fill:#4bd08b;}.cls-2{fill:#1f3528;stroke:#1f3528;stroke-miterlimit:10;stroke-width:2px;}</style></defs><title>Asset 51</title><g id="Layer_2" data-name="Layer 2"><g id="Layer_26" data-name="Layer 26"><rect class="cls-1" width="99.54" height="58.32" rx="5" ry="5"/><path class="cls-2" d="M67,41.48H57.65a2.7,2.7,0,0,0-2.4,1.47L52,49.35a1.22,1.22,0,0,1-2.16,0L46.29,42.9a2.7,2.7,0,0,0-2.38-1.41H32.84a6.06,6.06,0,0,1-6.06-6.06V18.88a6.06,6.06,0,0,1,6.06-6.06H67a6.06,6.06,0,0,1,6.06,6.06V35.42A6.06,6.06,0,0,1,67,41.48Z"/></g></g></svg>