<svg xmlns="http://www.w3.org/2000/svg" viewBox="0 0 49.05 49.05"><defs><style>.cls-1{fill:#4bd08b;}.cls-2{fill:none;}.cls-2,.cls-3{stroke:#1f3528;stroke-miterlimit:10;stroke-width:2px;}.cls-3{fill:#1f3528;}</style></defs><title>Asset 59</title><g id="Layer_2" data-name="Layer 2"><g id="Layer_26" data-name="Layer 26"><circle class="cls-1" cx="24.53" cy="24.53" r="24.53"/><path class="cls-2" d="M22.3,16.53,19.48,7.75A17.55,17.55,0,0,0,7.75,19.51l8.79,2.76A8.31,8.31,0,0,1,22.3,16.53Z"/><path class="cls-2" d="M32.51,22.24l8.79-2.8A17.55,17.55,0,0,0,29.6,7.77l-2.84,8.76A8.31,8.31,0,0,1,32.51,22.24Z"/><path class="cls-3" d="M24.53,16.22a8.29,8.29,0,0,1,2.23.31L29.6,7.77a17.42,17.42,0,0,0-10.11,0l2.81,8.78A8.29,8.29,0,0,1,24.53,16.22Z"/><path class="cls-3" d="M41.29,19.44l-8.79,2.8a8.18,8.18,0,0,1,0,4.58l8.78,2.83a17.57,17.57,0,0,0,0-10.2Z"/><path class="cls-2" d="M26.75,32.52l2.89,8.75A17.55,17.55,0,0,0,41.29,29.64l-8.78-2.83A8.31,8.31,0,0,1,26.75,32.52Z"/><path class="cls-3" d="M16.22,24.53a8.29,8.29,0,0,1,.32-2.26L7.75,19.51a17.41,17.41,0,0,0,0,10l8.81-2.73A8.29,8.29,0,0,1,16.22,24.53Z"/><path class="cls-2" d="M22.34,32.53l-2.95,8.7,2.95-8.7h0a8.31,8.31,0,0,1-5.75-5.73L7.73,29.52A17.52,17.52,0,0,0,24.53,42"/><path class="cls-2" d="M7.73,29.52A17.48,17.48,0,0,0,29.64,41.27l-2.8-8.78-.09,0a8.11,8.11,0,0,1-4.42,0L19.65,41l2.69-8.48h0"/><path class="cls-3" d="M19.76,40.86c0-.09,2.68-8.17,2.68-8.17l4.25.08s3,8.21,3,8.21-7,.87-6.93.93S19.76,40.86,19.76,40.86Z"/></g></g></svg>