<svg xmlns="http://www.w3.org/2000/svg" viewBox="0 0 65.03 64.51"><defs><style>.cls-1,.cls-5{fill:#4bd08b;}.cls-2{fill:#1f3528;}.cls-3,.cls-4{fill:none;}.cls-3,.cls-5{stroke:#1f3528;}.cls-3,.cls-4,.cls-5{stroke-miterlimit:10;stroke-width:2px;}.cls-4{stroke:#4bd08b;}</style></defs><title>Asset 61</title><g id="Layer_2" data-name="Layer 2"><g id="Layer_26" data-name="Layer 26"><rect class="cls-1" width="65.03" height="64.51" rx="5" ry="5"/><path class="cls-2" d="M11.64,43.25l-1.2-.3c-1.58-.3-2.57-1.23-2.57-2.67V15.7a2.6,2.6,0,0,1,2.6-2.6l18.42,3.72L47.14,13.1a2.6,2.6,0,0,1,2.6,2.6V40.28c0,1.44-1.06,2.14-2.6,2.6L28.87,46.6Z"/><path class="cls-3" d="M11.64,43.25l-1.2-.3c-1.58-.3-2.57-1.23-2.57-2.67V15.7a2.6,2.6,0,0,1,2.6-2.6l18.42,3.72L47.14,13.1a2.6,2.6,0,0,1,2.6,2.6V40.28c0,1.44-1.06,2.14-2.6,2.6L28.87,46.6Z"/><line class="cls-4" x1="12.54" y1="19.45" x2="23.1" y2="21.68"/><line class="cls-4" x1="12.54" y1="25.16" x2="23.1" y2="27.39"/><line class="cls-4" x1="12.54" y1="30.87" x2="23.1" y2="33.1"/><line class="cls-4" x1="12.54" y1="36.82" x2="23.1" y2="39.06"/><line class="cls-4" x1="34.5" y1="21.68" x2="45.07" y2="19.45"/><line class="cls-4" x1="34.5" y1="27.39" x2="45.07" y2="25.16"/><line class="cls-4" x1="34.5" y1="33.1" x2="45.07" y2="30.87"/><line class="cls-4" x1="34.5" y1="39.06" x2="45.07" y2="36.82"/><line class="cls-4" x1="28.8" y1="15.65" x2="28.8" y2="47.48"/><polygon class="cls-5" points="57.17 45.42 51.18 51.41 43.81 44.04 41.05 46.81 40.36 34.22 53.25 35.29 50.22 38.33 57.17 45.42"/></g></g></svg>