<svg xmlns="http://www.w3.org/2000/svg" viewBox="0 0 65.93 90.49"><defs><style>.cls-1{fill:#4bd08b;}.cls-2{fill:#1f3528;}.cls-3,.cls-4{fill:none;stroke:#1f3528;stroke-miterlimit:10;}.cls-3{stroke-width:2px;}</style></defs><title>Asset 65</title><g id="Layer_2" data-name="Layer 2"><g id="Layer_26" data-name="Layer 26"><rect class="cls-1" width="65.93" height="90.49" rx="5" ry="5"/><path class="cls-2" d="M50.07,48.4l-2.41-1.88a1.81,1.81,0,0,1-.7-1.42l0-3.89a1.81,1.81,0,0,1,.65-1.4l2.6-2.17a1.81,1.81,0,0,0,.53-2,20.2,20.2,0,0,0-2.58-4.67A1.81,1.81,0,0,0,46,30.34l-2.87,1.14a1.81,1.81,0,0,1-1.58-.12l-3.37-1.95a1.81,1.81,0,0,1-.88-1.27l-.6-3.64A1.81,1.81,0,0,0,35.26,23a20.18,20.18,0,0,0-6.33-.07,1.8,1.8,0,0,0-1.5,1.5l-.61,3.7a1.81,1.81,0,0,1-.88,1.27l-3.37,1.95a1.81,1.81,0,0,1-1.58.12l-3.15-1.25a1.81,1.81,0,0,0-2.11.58,20.2,20.2,0,0,0-2.61,4.62,1.81,1.81,0,0,0,.55,2.08l3.19,2.57a1.81,1.81,0,0,1,.68,1.39l0,3.89a1.81,1.81,0,0,1-.68,1.43L14,49.13a1.81,1.81,0,0,0-.52,2.15,20.23,20.23,0,0,0,2.69,4.37,1.81,1.81,0,0,0,2,.55L22,54.76a1.81,1.81,0,0,1,1.54.12l3.37,1.94a1.81,1.81,0,0,1,.89,1.31l.5,3.39a1.83,1.83,0,0,0,1.64,1.54q1,.09,1.95.1A20.16,20.16,0,0,0,34.3,63a1.8,1.8,0,0,0,1.56-1.53l.5-3.36a1.81,1.81,0,0,1,.89-1.31l3.37-1.94a1.81,1.81,0,0,1,1.54-.12l3.5,1.32a1.8,1.8,0,0,0,2-.55,20.21,20.21,0,0,0,2.94-5A1.8,1.8,0,0,0,50.07,48.4ZM31.89,51.51a8.57,8.57,0,1,1,8.57-8.57A8.57,8.57,0,0,1,31.89,51.51Z"/><path class="cls-3" d="M50.07,48.4l-2.41-1.88a1.81,1.81,0,0,1-.7-1.42l0-3.89a1.81,1.81,0,0,1,.65-1.4l2.6-2.17a1.81,1.81,0,0,0,.53-2,20.2,20.2,0,0,0-2.58-4.67A1.81,1.81,0,0,0,46,30.34l-2.87,1.14a1.81,1.81,0,0,1-1.58-.12l-3.37-1.95a1.81,1.81,0,0,1-.88-1.27l-.6-3.64A1.81,1.81,0,0,0,35.26,23a20.18,20.18,0,0,0-6.33-.07,1.8,1.8,0,0,0-1.5,1.5l-.61,3.7a1.81,1.81,0,0,1-.88,1.27l-3.37,1.95a1.81,1.81,0,0,1-1.58.12l-3.15-1.25a1.81,1.81,0,0,0-2.11.58,20.2,20.2,0,0,0-2.61,4.62,1.81,1.81,0,0,0,.55,2.08l3.19,2.57a1.81,1.81,0,0,1,.68,1.39l0,3.89a1.81,1.81,0,0,1-.68,1.43L14,49.13a1.81,1.81,0,0,0-.52,2.15,20.23,20.23,0,0,0,2.69,4.37,1.81,1.81,0,0,0,2,.55L22,54.76a1.81,1.81,0,0,1,1.54.12l3.37,1.94a1.81,1.81,0,0,1,.89,1.31l.5,3.39a1.83,1.83,0,0,0,1.64,1.54q1,.09,1.95.1A20.16,20.16,0,0,0,34.3,63a1.8,1.8,0,0,0,1.56-1.53l.5-3.36a1.81,1.81,0,0,1,.89-1.31l3.37-1.94a1.81,1.81,0,0,1,1.54-.12l3.5,1.32a1.8,1.8,0,0,0,2-.55,20.21,20.21,0,0,0,2.94-5A1.8,1.8,0,0,0,50.07,48.4ZM31.89,51.51a8.57,8.57,0,1,1,8.57-8.57A8.57,8.57,0,0,1,31.89,51.51Z"/><circle class="cls-1" cx="36.96" cy="51.64" r="11.02"/><circle class="cls-3" cx="37.03" cy="51.78" r="7.88"/><path class="cls-2" d="M52.44,66.64l-.62.62a1.88,1.88,0,0,1-2.34.19L41.33,59.3l3.13-3.1,8.13,8.13A1.83,1.83,0,0,1,52.44,66.64Z"/><path class="cls-4" d="M52.44,66.64l-.62.62a1.88,1.88,0,0,1-2.34.19L41.33,59.3l3.13-3.1,8.13,8.13A1.83,1.83,0,0,1,52.44,66.64Z"/></g></g></svg>