<svg xmlns="http://www.w3.org/2000/svg" viewBox="0 0 472.98 493.27"><defs><style>.cls-1{fill:none;}.cls-2{fill:#50cd89;}.cls-3{fill:#7239ea;}.cls-4{fill:#ffc700;}.cls-5{fill:#009ef7;}.cls-6{fill:#f1416c;}.cls-7{font-size:24.01px;fill:#fff;font-family:Arial-BoldMT, Arial;font-weight:700;}</style></defs><title>Asset 69</title><g id="Layer_2" data-name="Layer 2"><g id="Layer_26" data-name="Layer 26"><path class="cls-1" d="M125.4,136.47a153.63,153.63,0,1,0,252,149.32c.07-.3.15-.6.22-.89a153.74,153.74,0,0,0-66.37-162.69q-5.34-3.45-11.05-6.52A153.69,153.69,0,0,0,125.4,136.47Z"/><path class="cls-2" d="M447.28,301.9c20.8-89.72-15.46-185.26-94-237.85l3.21,45.47-38.58,17.25a153.77,153.77,0,0,1,60.37,154.86l29.45,33.48Z"/><path class="cls-3" d="M404.61,326.7l-29.23-33.23A153.62,153.62,0,0,1,250.89,403l-26,39.41,25.92,32.87A225.37,225.37,0,0,0,444.24,313.46Z"/><path class="cls-4" d="M238,404.42A153.59,153.59,0,0,1,90.42,320l-43-10L24.11,347.69A225.36,225.36,0,0,0,238.85,476.2l-26.24-33.27Z"/><path class="cls-5" d="M342.8,57.43q-4.31-2.56-8.77-5C250.34,7.68,151.06,21.12,82.6,78.69l41.47,11.79,7.32,40.92a153.66,153.66,0,0,1,168.8-15.71c2.69,1.44,5.29,3,7.86,4.54l38-17Z"/><path class="cls-6" d="M73.74,86.57a225.45,225.45,0,0,0-54.52,250l23.45-37.9,42.55,9.87A153.8,153.8,0,0,1,122.6,139l-7.27-40.65Z"/><text class="cls-7" transform="translate(374.91 146.75) rotate(57.49)">A</text><text class="cls-7" transform="translate(383.83 160.69) rotate(62.75)">D</text><text class="cls-7" transform="translate(391.47 175.38) rotate(68.2)">O</text><text class="cls-7" transform="translate(398.1 192) rotate(73.43)">P</text><text class="cls-7" transform="translate(402.47 206.7) rotate(78.06)">T</text><text class="cls-7" transform="translate(405.3 220.58) rotate(81.28)">I</text><text class="cls-7" transform="translate(406.45 226.59) rotate(85.11)">O</text><text class="cls-7" transform="translate(407.98 244.4) rotate(90.58)">N</text><text class="cls-7" transform="translate(154.77 86.15) rotate(-21.09)">A</text><text class="cls-7" transform="translate(170.21 80.16) rotate(-15.86)">C</text><text class="cls-7" transform="translate(186.12 75.56) rotate(-10.42)">Q</text><text class="cls-7" transform="translate(203.69 72.32) rotate(-4.98)">U</text><text class="cls-7" transform="translate(220.42 71.02) rotate(-1.33)">I</text><text class="cls-7" transform="translate(226.57 70.72) rotate(2.12)">S</text><text class="cls-7" transform="translate(242.07 71.42) rotate(5.59)">I</text><text class="cls-7" transform="translate(248.24 71.9) rotate(8.85)">T</text><text class="cls-7" transform="translate(262.23 74.18) rotate(12.12)">I</text><text class="cls-7" transform="matrix(0.96, 0.28, -0.28, 0.96, 268.23, 75.24)">O</text><text class="cls-7" transform="matrix(0.93, 0.37, -0.37, 0.93, 285.42, 80.16)">N</text><text class="cls-7" transform="translate(259.39 446.04) rotate(-11.58)">E</text><text class="cls-7" transform="matrix(0.96, -0.29, 0.29, 0.96, 275.84, 442.67)">N</text><text class="cls-7" transform="translate(293.25 437.47) rotate(-22.03)">G</text><text class="cls-7" transform="matrix(0.89, -0.46, 0.46, 0.89, 311.29, 430.09)">A</text><text class="cls-7" transform="matrix(0.84, -0.54, 0.54, 0.84, 327.42, 421.7)">G</text><text class="cls-7" transform="matrix(0.79, -0.62, 0.62, 0.79, 343.7, 411.03)">E</text><text class="cls-7" transform="translate(356.98 400.64) rotate(-43.73)">M</text><text class="cls-7" transform="matrix(0.65, -0.76, 0.76, 0.65, 371.94, 386.14)">E</text><text class="cls-7" transform="translate(382.89 373.43) rotate(-54.33)">N</text><text class="cls-7" transform="translate(393.37 358.68) rotate(-59.17)">T</text><text class="cls-7" transform="translate(61.65 358.09) rotate(54.76)">R</text><text class="cls-7" transform="translate(72.14 372.84) rotate(49.68)">E</text><text class="cls-7" transform="matrix(0.71, 0.71, -0.71, 0.71, 83.02, 385.57)">T</text><text class="cls-7" transform="translate(93.9 396.44) rotate(40.29)">E</text><text class="cls-7" transform="translate(106.71 407.29) rotate(35.2)">N</text><text class="cls-7" transform="translate(121.53 417.63) rotate(30.36)">T</text><text class="cls-7" transform="matrix(0.89, 0.46, -0.46, 0.89, 134.65, 425.17)">I</text><text class="cls-7" transform="translate(141.02 428.65) rotate(23.37)">O</text><text class="cls-7" transform="translate(158.96 436.32) rotate(17.89)">N</text><text class="cls-7" transform="matrix(-0.03, -1, 1, -0.03, 47.88, 264.66)">E</text><text class="cls-7" transform="translate(47.35 249.35) rotate(-86.96)">X</text><text class="cls-7" transform="translate(48.13 234.09) rotate(-82.07)">P</text><text class="cls-7" transform="translate(49.88 220.64) rotate(-77.51)">A</text><text class="cls-7" transform="translate(53.43 204.46) rotate(-72.21)">N</text><text class="cls-7" transform="matrix(0.39, -0.92, 0.92, 0.39, 58.5, 188.66)">S</text><text class="cls-7" transform="translate(64.63 174.43) rotate(-63.73)">I</text><text class="cls-7" transform="matrix(0.5, -0.87, 0.87, 0.5, 67.13, 168.87)">O</text><text class="cls-7" transform="translate(76.08 153.4) rotate(-54.47)">N</text></g></g></svg>