<svg xmlns="http://www.w3.org/2000/svg" viewBox="0 0 123.8 123.8"><defs><style>.cls-1{fill:none;stroke:#2fcf8f;stroke-miterlimit:10;stroke-width:2px;}.cls-2{font-size:38.04px;fill:#2fcf8f;font-family:ArialMT, Arial;}</style></defs><title>Asset 74</title><g id="Layer_2" data-name="Layer 2"><g id="Layer_26" data-name="Layer 26"><rect class="cls-1" x="34.56" y="34.45" width="54.69" height="54.69" rx="5" ry="5"/><text class="cls-2" transform="translate(43.96 71.94)">AI</text><line class="cls-1" x1="61.9" y1="34.7" x2="61.9" y2="9.18"/><circle class="cls-1" cx="61.9" cy="5" r="4"/><line class="cls-1" x1="76.92" y1="34.7" x2="76.92" y2="21.19"/><circle class="cls-1" cx="76.92" cy="17.02" r="4"/><line class="cls-1" x1="46.88" y1="34.7" x2="46.88" y2="21.19"/><circle class="cls-1" cx="46.88" cy="17.02" r="4"/><line class="cls-1" x1="61.9" y1="89.1" x2="61.9" y2="114.62"/><circle class="cls-1" cx="61.9" cy="118.8" r="4"/><line class="cls-1" x1="46.88" y1="89.1" x2="46.88" y2="102.61"/><circle class="cls-1" cx="46.88" cy="106.78" r="4"/><line class="cls-1" x1="76.92" y1="89.1" x2="76.92" y2="102.61"/><circle class="cls-1" cx="76.92" cy="106.78" r="4"/><line class="cls-1" x1="89.1" y1="61.9" x2="114.62" y2="61.9"/><circle class="cls-1" cx="118.8" cy="61.9" r="4"/><line class="cls-1" x1="89.1" y1="76.92" x2="102.61" y2="76.92"/><circle class="cls-1" cx="106.78" cy="76.92" r="4"/><line class="cls-1" x1="89.1" y1="46.88" x2="102.61" y2="46.88"/><circle class="cls-1" cx="106.78" cy="46.88" r="4"/><line class="cls-1" x1="34.7" y1="61.9" x2="9.18" y2="61.9"/><circle class="cls-1" cx="5" cy="61.9" r="4"/><line class="cls-1" x1="34.7" y1="46.88" x2="21.19" y2="46.88"/><circle class="cls-1" cx="17.02" cy="46.88" r="4"/><line class="cls-1" x1="34.7" y1="76.92" x2="21.19" y2="76.92"/><circle class="cls-1" cx="17.02" cy="76.92" r="4"/></g></g></svg>