<svg xmlns="http://www.w3.org/2000/svg" viewBox="0 0 766.82 533.36"><defs><style>.cls-1,.cls-2,.cls-5,.cls-6{fill:none;}.cls-1{stroke:#2fcf8f;stroke-width:3px;}.cls-1,.cls-2,.cls-3,.cls-5,.cls-6{stroke-miterlimit:10;}.cls-2,.cls-3,.cls-5,.cls-6{stroke:#8ff9bc;}.cls-2,.cls-3{stroke-width:2px;}.cls-3,.cls-4{fill:#8ff9bc;}.cls-5{stroke-width:4px;}.cls-7{fill:#2fcf8f;}</style></defs><title>Asset 49</title><g id="Layer_2" data-name="Layer 2"><g id="Layer_26" data-name="Layer 26"><circle class="cls-1" cx="122.26" cy="194.43" r="25.03"/><rect class="cls-1" x="433.53" y="445.84" width="65.03" height="64.51" rx="5" ry="5"/><circle class="cls-1" cx="604.88" cy="470.36" r="24.53"/><rect class="cls-1" x="520.26" y="445.84" width="42.06" height="50.76" rx="5" ry="5"/><rect class="cls-1" x="421.45" y="3.28" width="68.49" height="105.12" rx="5" ry="5"/><path class="cls-1" d="M623.44,62a23.11,23.11,0,0,0-10.67,2.6,34.94,34.94,0,0,0-68.92.83,22.14,22.14,0,1,0-8.55,43v0h88.14a23.22,23.22,0,1,0,0-46.44Z"/><polygon class="cls-1" points="264.41 3.28 210.35 107.4 317.3 107.4 264.41 3.28"/><path class="cls-1" d="M414.73,443.93a87.94,87.94,0,0,1-175.87,0C246.68,443.89,404.08,443.89,414.73,443.93Z"/><rect class="cls-1" x="343.73" y="59.06" width="48.71" height="49.33" rx="5" ry="5"/><rect class="cls-1" x="86.27" y="50.07" width="99.54" height="58.32" rx="5" ry="5"/><rect class="cls-1" x="659.24" y="258.62" width="91.16" height="102.1" rx="5" ry="5"/><rect class="cls-1" x="177.68" y="445.84" width="48.43" height="47.79" rx="5" ry="5"/><polygon class="cls-1" points="6.04 423.37 147.29 423.37 147.29 348.55 6.04 423.37"/><rect class="cls-1" x="658.91" y="162.32" width="106.41" height="72.01" rx="5" ry="5"/><rect class="cls-1" x="81.36" y="241.07" width="65.93" height="90.49" rx="5" ry="5"/><path class="cls-2" d="M602.65,462.37l-2.81-8.78a17.55,17.55,0,0,0-11.73,11.76l8.79,2.76A8.31,8.31,0,0,1,602.65,462.37Z"/><path class="cls-2" d="M612.86,468.08l8.79-2.8a17.55,17.55,0,0,0-11.7-11.67l-2.84,8.76A8.31,8.31,0,0,1,612.86,468.08Z"/><path class="cls-3" d="M604.88,462.06a8.29,8.29,0,0,1,2.23.31l2.84-8.76a17.42,17.42,0,0,0-10.11,0l2.81,8.78A8.29,8.29,0,0,1,604.88,462.06Z"/><path class="cls-3" d="M621.65,465.28l-8.79,2.8a8.18,8.18,0,0,1,0,4.58l8.78,2.83a17.57,17.57,0,0,0,0-10.2Z"/><path class="cls-2" d="M607.11,478.36l2.89,8.75a17.55,17.55,0,0,0,11.65-11.63l-8.78-2.83A8.31,8.31,0,0,1,607.11,478.36Z"/><path class="cls-3" d="M596.57,470.36a8.29,8.29,0,0,1,.32-2.26l-8.79-2.76a17.41,17.41,0,0,0,0,10l8.81-2.73A8.29,8.29,0,0,1,596.57,470.36Z"/><path class="cls-2" d="M602.69,478.37l-2.95,8.7,2.95-8.7h0a8.31,8.31,0,0,1-5.75-5.73l-8.81,2.72a17.52,17.52,0,0,0,16.79,12.53"/><path class="cls-2" d="M588.09,475.35A17.48,17.48,0,0,0,610,487.11l-2.8-8.78-.09,0a8.11,8.11,0,0,1-4.42,0L600,486.84l2.69-8.48h0"/><path class="cls-3" d="M600.12,486.69c0-.09,2.68-8.17,2.68-8.17l4.25.08s3,8.21,3,8.21-7,.87-6.93.93S600.12,486.69,600.12,486.69Z"/><path class="cls-4" d="M461.33,461.48,444.19,458l-.2,0a3.6,3.6,0,0,0-3.6,3.6v24.58a3.68,3.68,0,0,0,3.32,3.64l1.2.3,16.41,3.19Zm-15.06,2.82,10.57,2.23-.41,2-10.57-2.23Zm10.15,21.56-10.57-2.23.41-2,10.57,2.23Zm0-6-10.57-2.23.41-2L456.84,478Zm0-5.71L445.86,472l.41-2,10.57,2.23Z"/><path class="cls-4" d="M485.16,484.17l3.86-3.86-4.74-.4V461.53a3.6,3.6,0,0,0-3.6-3.6l-17.5,3.55h.17v31.78l10.17-2.07.21,3.74,3.64-3.64,7.37,7.37,7.39-7.39Zm-6.77-19.86.41,2-10.57,2.23-.41-2Zm0,5.71.41,2-10.57,2.23-.41-2Zm-10.15,15.85-.41-2,5.22-1.1.11,2Zm0-6-.41-2,10.57-2.23.41,2Zm9.11,8.55-1.89,1.89-.5-9.21,9.6.8-2.21,2.21,6.95,7.1-4.58,4.58Z"/><path class="cls-4" d="M333.28,476.35H318.36v14.91h14.91Zm-9.65,12.31L319.53,484l1.51-1.32,2.71,3.1,6.86-6.57,1.38,1.44Z"/><path class="cls-4" d="M307.91,476.35H293v14.91h14.91Zm-9.65,12.31L294.17,484l1.5-1.32,2.71,3.1,6.86-6.57,1.38,1.44Z"/><path class="cls-4" d="M358.64,476.35H343.73v14.91h14.91ZM349,488.66,344.9,484l1.5-1.32,2.71,3.1L356,479.2l1.38,1.44Z"/><path class="cls-4" d="M285,456.7v54.22h81.7V456.7Zm24.94,36.57H291V474.35h18.91Zm25.37,0H316.36V474.35h18.91Zm25.37,0H341.73V474.35h18.91Z"/><path class="cls-5" d="M437.13,56.5s-.07-.93-.07-9.39a18.79,18.79,0,1,1,37.59,0V56"/><path class="cls-4" d="M439.62,72.69H433a4.3,4.3,0,0,1-4.29-4.29V59.58A4.3,4.3,0,0,1,433,55.29h6.79Z"/><path class="cls-2" d="M439.62,72.69H433a4.3,4.3,0,0,1-4.29-4.29V59.58A4.3,4.3,0,0,1,433,55.29h6.79Z"/><path class="cls-4" d="M471.77,72.69h6.61a4.3,4.3,0,0,0,4.29-4.29V59.58a4.3,4.3,0,0,0-4.29-4.29H471.6Z"/><path class="cls-2" d="M471.77,72.69h6.61a4.3,4.3,0,0,0,4.29-4.29V59.58a4.3,4.3,0,0,0-4.29-4.29H471.6Z"/><path class="cls-5" d="M464.9,80.25H469a6.11,6.11,0,0,0,6.09-6.09V71.94"/><rect class="cls-4" x="451.8" y="77.16" width="12.15" height="6.21" rx="3.1" ry="3.1"/><rect class="cls-2" x="451.8" y="77.16" width="12.15" height="6.21" rx="3.1" ry="3.1"/><path class="cls-4" d="M740.13,176.82h-56a2,2,0,0,0-2,2v39a2,2,0,0,0,2,2h56a2,2,0,0,0,2-2v-39A2,2,0,0,0,740.13,176.82Zm-48.52,38.47a1,1,0,0,1-1,1h-4.7a1,1,0,0,1-1-1v-4.7a1,1,0,0,1,1-1h4.7a1,1,0,0,1,1,1Zm0-9.38a1,1,0,0,1-1,1h-4.7a1,1,0,0,1-1-1v-4.7a1,1,0,0,1,1-1h4.7a1,1,0,0,1,1,1Zm0-10.05a1,1,0,0,1-1,1h-4.7a1,1,0,0,1-1-1v-4.7a1,1,0,0,1,1-1h4.7a1,1,0,0,1,1,1Zm0-9.38a1,1,0,0,1-1,1h-4.7a1,1,0,0,1-1-1v-4.7a1,1,0,0,1,1-1h4.7a1,1,0,0,1,1,1Zm28.71,13-15.11,8.75a1.3,1.3,0,0,1-2-1.13v-17.5a1.3,1.3,0,0,1,2-1.13l15.11,8.75A1.3,1.3,0,0,1,720.32,199.45Zm18.21,15.84a1,1,0,0,1-1,1h-4.7a1,1,0,0,1-1-1v-4.7a1,1,0,0,1,1-1h4.7a1,1,0,0,1,1,1Zm0-9.38a1,1,0,0,1-1,1h-4.7a1,1,0,0,1-1-1v-4.7a1,1,0,0,1,1-1h4.7a1,1,0,0,1,1,1Zm0-10.05a1,1,0,0,1-1,1h-4.7a1,1,0,0,1-1-1v-4.7a1,1,0,0,1,1-1h4.7a1,1,0,0,1,1,1Zm0-9.38a1,1,0,0,1-1,1h-4.7a1,1,0,0,1-1-1v-4.7a1,1,0,0,1,1-1h4.7a1,1,0,0,1,1,1Z"/><circle class="cls-2" cx="118.39" cy="292.85" r="7.88"/><path class="cls-4" d="M133.8,307.71l-.62.62a1.88,1.88,0,0,1-2.34.19l-8.14-8.14,3.13-3.1L134,305.4A1.83,1.83,0,0,1,133.8,307.71Z"/><path class="cls-6" d="M133.8,307.71l-.62.62a1.88,1.88,0,0,1-2.34.19l-8.14-8.14,3.13-3.1L134,305.4A1.83,1.83,0,0,1,133.8,307.71Z"/><path class="cls-4" d="M132,288.68l-2.41-1.88a.81.81,0,0,1-.31-.64l0-3.89a.81.81,0,0,1,.29-.63l2.6-2.17a2.81,2.81,0,0,0,.82-3.18,21.2,21.2,0,0,0-2.71-4.9,2.81,2.81,0,0,0-3.29-.93l-2.87,1.14a.81.81,0,0,1-.71-.05l-3.37-1.95a.81.81,0,0,1-.4-.57l-.6-3.64a2.81,2.81,0,0,0-2.29-2.32,21.29,21.29,0,0,0-6.64-.07,2.79,2.79,0,0,0-2.34,2.32l-.61,3.7a.81.81,0,0,1-.4.57l-3.37,1.95a.81.81,0,0,1-.71.05l-3.15-1.25a2.81,2.81,0,0,0-3.28.91,21.22,21.22,0,0,0-2.74,4.85,2.83,2.83,0,0,0,.85,3.23l3.19,2.57a.81.81,0,0,1,.3.63l0,3.89a.81.81,0,0,1-.3.64l-2.91,2.34a2.8,2.8,0,0,0-.81,3.34,21.25,21.25,0,0,0,2.82,4.59,2.8,2.8,0,0,0,3.18.85l3.78-1.43a.82.82,0,0,1,.69.06l3.37,1.94a.81.81,0,0,1,.4.59l.5,3.39a2.82,2.82,0,0,0,2.53,2.39c.68.07,1.37.1,2,.1a21.26,21.26,0,0,0,2.52-.15,2.78,2.78,0,0,0,2.06-1.37,11,11,0,0,1-10-14.41,7.57,7.57,0,1,1,12.67-7.39,11,11,0,0,1,7.32,16.34,2.77,2.77,0,0,0,2-1,21.18,21.18,0,0,0,3.09-5.29A2.81,2.81,0,0,0,132,288.68Z"/><path class="cls-3" d="M153.29,91.56h-9.38a2.7,2.7,0,0,0-2.4,1.47l-3.29,6.4a1.22,1.22,0,0,1-2.16,0L132.56,93a2.7,2.7,0,0,0-2.38-1.41H119.11A6.06,6.06,0,0,1,113,85.49V69a6.06,6.06,0,0,1,6.06-6.06h34.18A6.06,6.06,0,0,1,159.36,69V85.49A6.06,6.06,0,0,1,153.29,91.56Z"/><path class="cls-2" d="M350.7,70.17a3,3,0,0,1,1.88-3l20.25-1.69"/><path class="cls-2" d="M372.35,65.72s-3.33,3.1,2.46,4.3"/><path class="cls-4" d="M361.78,88.95a10.29,10.29,0,0,1,13.5-9.79V69l-22,1.54c-.15,0-1.53,0-1.6-.94l-2,.07c0,.78,0,19.09.07,21.85a4,4,0,0,0,4,3.86h.12l9.68-.68A10.25,10.25,0,0,1,361.78,88.95Z"/><path class="cls-4" d="M372.08,98.06a9.12,9.12,0,1,1,9.12-9.12A9.13,9.13,0,0,1,372.08,98.06Zm0-15.23a6.12,6.12,0,1,0,6.12,6.12A6.12,6.12,0,0,0,372.08,82.83Z"/><path class="cls-4" d="M378.87,92.63l6.31,6.31a.88.88,0,0,1,.06,1.24l-1.57,1.57a.88.88,0,0,1-1.24-.06l-6.31-6.31"/><line class="cls-4" x1="580.49" y1="108.4" x2="580.49" y2="139.04"/><line class="cls-6" x1="580.49" y1="111.99" x2="580.49" y2="135.46"/><polygon class="cls-4" points="577.99 112.72 580.49 108.4 582.98 112.72 577.99 112.72"/><polygon class="cls-4" points="577.99 134.73 580.49 139.04 582.98 134.73 577.99 134.73"/><line class="cls-4" x1="263.82" y1="108.4" x2="263.82" y2="139.04"/><line class="cls-6" x1="263.82" y1="111.99" x2="263.82" y2="135.46"/><polygon class="cls-4" points="261.33 112.72 263.82 108.4 266.32 112.72 261.33 112.72"/><polygon class="cls-4" points="261.33 134.73 263.82 139.04 266.32 134.73 261.33 134.73"/><line class="cls-4" x1="543.3" y1="415.74" x2="543.3" y2="446.38"/><line class="cls-6" x1="543.3" y1="419.32" x2="543.3" y2="442.79"/><polygon class="cls-4" points="540.8 420.05 543.3 415.74 545.79 420.05 540.8 420.05"/><polygon class="cls-4" points="540.8 442.06 543.3 446.38 545.79 442.06 540.8 442.06"/><line class="cls-4" x1="325.82" y1="415.74" x2="325.82" y2="446.38"/><line class="cls-6" x1="325.82" y1="419.32" x2="325.82" y2="442.79"/><polygon class="cls-4" points="323.33 420.05 325.82 415.74 328.31 420.05 323.33 420.05"/><polygon class="cls-4" points="323.33 442.06 325.82 446.38 328.31 442.06 323.33 442.06"/><line class="cls-4" x1="658.66" y1="294.31" x2="628.01" y2="294.31"/><line class="cls-6" x1="655.07" y1="294.31" x2="631.6" y2="294.31"/><polygon class="cls-4" points="654.34 291.81 658.66 294.31 654.34 296.8 654.34 291.81"/><polygon class="cls-4" points="632.33 291.81 628.01 294.31 632.33 296.8 632.33 291.81"/><line class="cls-4" x1="658.66" y1="198.32" x2="628.01" y2="198.32"/><line class="cls-6" x1="655.07" y1="198.32" x2="631.6" y2="198.32"/><polygon class="cls-4" points="654.34 195.83 658.66 198.32 654.34 200.81 654.34 195.83"/><polygon class="cls-4" points="632.33 195.83 628.01 198.32 632.33 200.81 632.33 195.83"/><line class="cls-4" x1="243.4" y1="472.11" x2="226.77" y2="472.11"/><line class="cls-6" x1="239.81" y1="472.11" x2="230.36" y2="472.11"/><polygon class="cls-4" points="239.08 469.62 243.4 472.11 239.08 474.61 239.08 469.62"/><polygon class="cls-4" points="231.09 469.62 226.77 472.11 231.09 474.61 231.09 469.62"/><line class="cls-4" x1="433.04" y1="477.82" x2="408.4" y2="477.82"/><line class="cls-6" x1="429.45" y1="477.82" x2="411.99" y2="477.82"/><polygon class="cls-4" points="428.72 475.33 433.04 477.82 428.72 480.31 428.72 475.33"/><polygon class="cls-4" points="412.72 475.33 408.4 477.82 412.72 480.31 412.72 475.33"/><line class="cls-4" x1="177.4" y1="286.31" x2="146.75" y2="286.31"/><line class="cls-6" x1="173.81" y1="286.31" x2="150.34" y2="286.31"/><polygon class="cls-4" points="173.08 283.82 177.4 286.31 173.08 288.81 173.08 283.82"/><polygon class="cls-4" points="151.07 283.82 146.75 286.31 151.07 288.81 151.07 283.82"/><line class="cls-4" x1="177.4" y1="194.43" x2="146.75" y2="194.43"/><line class="cls-6" x1="173.81" y1="194.43" x2="150.34" y2="194.43"/><polygon class="cls-4" points="173.08 191.94 177.4 194.43 173.08 196.93 173.08 191.94"/><polygon class="cls-4" points="151.07 191.94 146.75 194.43 151.07 196.93 151.07 191.94"/><line class="cls-4" x1="691.61" y1="360.73" x2="691.61" y2="391.37"/><line class="cls-6" x1="691.61" y1="364.32" x2="691.61" y2="387.79"/><polygon class="cls-4" points="689.12 365.05 691.61 360.73 694.11 365.05 689.12 365.05"/><polygon class="cls-4" points="689.12 387.06 691.61 391.37 694.11 387.06 689.12 387.06"/><line class="cls-4" x1="225.63" y1="79.24" x2="185.97" y2="79.24"/><line class="cls-6" x1="222.04" y1="79.24" x2="189.56" y2="79.24"/><polygon class="cls-4" points="221.31 76.74 225.63 79.24 221.31 81.73 221.31 76.74"/><polygon class="cls-4" points="190.29 76.74 185.97 79.24 190.29 81.73 190.29 76.74"/><line class="cls-4" x1="177.4" y1="385.96" x2="146.75" y2="385.96"/><line class="cls-6" x1="173.81" y1="385.96" x2="150.34" y2="385.96"/><polygon class="cls-4" points="173.08 383.47 177.4 385.96 173.08 388.46 173.08 383.47"/><polygon class="cls-4" points="151.07 383.47 146.75 385.96 151.07 388.46 151.07 383.47"/><path class="cls-6" d="M115.21,428v30.6a12.3,12.3,0,0,0,12.3,12.3H175.1"/><polygon class="cls-4" points="112.72 428.69 115.21 424.37 117.71 428.69 112.72 428.69"/><polygon class="cls-4" points="174.37 473.36 178.68 470.86 174.37 468.37 174.37 473.36"/><line class="cls-4" x1="342.75" y1="79.24" x2="303.1" y2="79.24"/><line class="cls-6" x1="339.17" y1="79.24" x2="306.69" y2="79.24"/><polygon class="cls-4" points="338.44 76.74 342.75 79.24 338.44 81.73 338.44 76.74"/><polygon class="cls-4" points="307.42 76.74 303.1 79.24 307.42 81.73 307.42 76.74"/><line class="cls-4" x1="342.75" y1="89.25" x2="308.1" y2="89.25"/><line class="cls-6" x1="339.17" y1="89.25" x2="311.69" y2="89.25"/><polygon class="cls-4" points="338.44 86.75 342.75 89.25 338.44 91.74 338.44 86.75"/><polygon class="cls-4" points="312.42 86.75 308.1 89.25 312.42 91.74 312.42 86.75"/><rect class="cls-1" x="660.75" y="391.84" width="61.73" height="78.45" rx="5" ry="5"/><rect class="cls-1" x="179.28" y="140.5" width="449.19" height="274.91" rx="25" ry="25"/><line class="cls-1" x1="180.2" y1="167.58" x2="627.55" y2="167.58"/><circle class="cls-7" cx="192.89" cy="154.47" r="2.6"/><circle class="cls-7" cx="205.89" cy="154.47" r="2.6"/><circle class="cls-7" cx="218.89" cy="154.47" r="2.6"/><path class="cls-4" d="M108.8,386.71H98.5a5.59,5.59,0,0,0-5.59,5.59v15.16A5.59,5.59,0,0,0,98.5,413h5.2l3.38,4.13a1.52,1.52,0,0,0,1.18.56,1.56,1.56,0,0,0,.5-.08,1.52,1.52,0,0,0,1-1.41l.09-3.2h8a5.59,5.59,0,0,0,5.59-5.59V400C115.68,399.75,109.35,394,108.8,386.71Zm-11.1,8.86h12.61v2H97.7Zm14.76,11.33H98v-2h14.45Zm4-5H97.85v-2h18.61Z"/><path class="cls-4" d="M136.71,385.44c0-6.61-5.71-12-12.74-12s-12.74,5.38-12.74,12,5.71,12,12.74,12a13.43,13.43,0,0,0,4.19-.66,10.45,10.45,0,0,1,1.62,1.68c1,1.17,1.7,2,2.31,2a.67.67,0,0,0,.33-.09c.6-.34.5-1.38.23-3.51a17.31,17.31,0,0,1-.22-2.45A11.71,11.71,0,0,0,136.71,385.44Zm-13,7.45a1.61,1.61,0,1,1,1.59-1.61A1.54,1.54,0,0,1,123.7,392.89Zm2.29-7.73A3.77,3.77,0,0,0,124.9,388v.45h-2.25l0-.54a4.55,4.55,0,0,1,1.24-3.39,4.26,4.26,0,0,0,1.32-2.48c0-.87-.56-1.45-1.71-1.47a3.64,3.64,0,0,0-2.07.62l-.62-1.82a6.24,6.24,0,0,1,3.24-.85c2.56,0,3.74,1.49,3.74,3.14A5.32,5.32,0,0,1,126,385.16Z"/></g></g></svg>