<svg xmlns="http://www.w3.org/2000/svg" viewBox="0 0 48.71 49.33"><defs><style>.cls-1,.cls-5{fill:#4bd08b;}.cls-2{fill:#1f3528;}.cls-3,.cls-4{fill:none;stroke:#1f3528;stroke-miterlimit:10;}.cls-3{stroke-width:2px;}.cls-4{stroke-width:3px;}.cls-5{font-size:16.69px;font-family:MyriadPro-Semibold, Myriad Pro;font-weight:700;}</style></defs><title>Asset 53</title><g id="Layer_2" data-name="Layer 2"><g id="Layer_26" data-name="Layer 26"><rect class="cls-1" width="48.71" height="49.33" rx="5" ry="5"/><path class="cls-2" d="M7,10.61c.14,2,2.65,1.87,2.65,1.87L30.56,11V33.85l-.51.09-20,1.39a3,3,0,0,1-3-3C7,29.65,7,10.61,7,10.61Z"/><path class="cls-3" d="M7,10.61c.14,2,2.65,1.87,2.65,1.87L30.56,11V33.85l-.51.09-20,1.39a3,3,0,0,1-3-3C7,29.65,7,10.61,7,10.61Z"/><path class="cls-3" d="M7,11.11a3,3,0,0,1,1.88-3L29.1,6.41"/><path class="cls-3" d="M28.62,6.65S25.3,9.76,31.08,11"/><circle class="cls-1" cx="28.35" cy="29.88" r="10.3"/><circle class="cls-1" cx="28.35" cy="29.88" r="7.62"/><circle class="cls-4" cx="28.35" cy="29.88" r="7.62"/><path class="cls-2" d="M35.14,33.57l6.31,6.31a.88.88,0,0,1,.06,1.24L39.94,42.7a.88.88,0,0,1-1.24-.06l-6.31-6.31"/><text class="cls-5" transform="translate(25.3 35.27)">?</text></g></g></svg>