<svg xmlns="http://www.w3.org/2000/svg" viewBox="0 0 68.49 105.12"><defs><style>.cls-1{fill:#4bd08b;}.cls-2,.cls-4{fill:none;stroke:#1f3528;stroke-miterlimit:10;}.cls-2{stroke-width:4px;}.cls-3{fill:#1f3528;}.cls-4{stroke-width:2px;}</style></defs><title>Asset 54</title><g id="Layer_2" data-name="Layer 2"><g id="Layer_26" data-name="Layer 26"><rect class="cls-1" width="68.49" height="105.12" rx="5" ry="5"/><path class="cls-2" d="M15.67,53.21s-.07-.93-.07-9.39a18.79,18.79,0,0,1,37.59,0v8.85"/><path class="cls-3" d="M18.17,69.4H11.56a4.3,4.3,0,0,1-4.29-4.29V56.29A4.3,4.3,0,0,1,11.56,52h6.79Z"/><path class="cls-4" d="M18.17,69.4H11.56a4.3,4.3,0,0,1-4.29-4.29V56.29A4.3,4.3,0,0,1,11.56,52h6.79Z"/><path class="cls-3" d="M50.32,69.4h6.61a4.3,4.3,0,0,0,4.29-4.29V56.29A4.3,4.3,0,0,0,56.93,52H50.14Z"/><path class="cls-4" d="M50.32,69.4h6.61a4.3,4.3,0,0,0,4.29-4.29V56.29A4.3,4.3,0,0,0,56.93,52H50.14Z"/><path class="cls-2" d="M33.45,77H47.57a6.11,6.11,0,0,0,6.09-6.09V68.65"/><rect class="cls-3" x="30.34" y="73.88" width="12.15" height="6.21" rx="3.1" ry="3.1"/><rect class="cls-4" x="30.34" y="73.88" width="12.15" height="6.21" rx="3.1" ry="3.1"/></g></g></svg>