<svg xmlns="http://www.w3.org/2000/svg" viewBox="0 0 106.41 72.01"><defs><style>.cls-1{fill:#4bd08b;}.cls-2{fill:#1f3528;stroke:#1f3528;stroke-miterlimit:10;stroke-width:2px;}</style></defs><title>Asset 56</title><g id="Layer_2" data-name="Layer 2"><g id="Layer_26" data-name="Layer 26"><rect class="cls-1" width="106.41" height="72.01" rx="5" ry="5"/><rect class="cls-2" x="24.21" y="15.23" width="58" height="41.54" rx="2" ry="2"/><path class="cls-1" d="M44.35,27.25v17.5a1.3,1.3,0,0,0,2,1.13l15.11-8.75a1.3,1.3,0,0,0,0-2.25L46.3,26.13A1.3,1.3,0,0,0,44.35,27.25Z"/><rect class="cls-1" x="26" y="18.44" width="6.7" height="6.7" rx="1" ry="1"/><rect class="cls-1" x="26" y="27.83" width="6.7" height="6.7" rx="1" ry="1"/><rect class="cls-1" x="26" y="37.88" width="6.7" height="6.7" rx="1" ry="1"/><rect class="cls-1" x="26" y="47.27" width="6.7" height="6.7" rx="1" ry="1"/><rect class="cls-1" x="72.92" y="18.44" width="6.7" height="6.7" rx="1" ry="1"/><rect class="cls-1" x="72.92" y="27.83" width="6.7" height="6.7" rx="1" ry="1"/><rect class="cls-1" x="72.92" y="37.88" width="6.7" height="6.7" rx="1" ry="1"/><rect class="cls-1" x="72.92" y="47.27" width="6.7" height="6.7" rx="1" ry="1"/></g></g></svg>