<svg xmlns="http://www.w3.org/2000/svg" viewBox="0 0 141.25 74.82"><defs><style>.cls-1,.cls-5{fill:#4bd08b;}.cls-2,.cls-4{fill:#1f3528;}.cls-2{stroke:#1f3528;}.cls-2,.cls-3,.cls-4{stroke-miterlimit:10;}.cls-2,.cls-3{stroke-width:2px;}.cls-3{fill:none;}.cls-3,.cls-4{stroke:#4bd08b;}.cls-5{font-size:20.67px;font-family:MyriadPro-Semibold, Myriad Pro;font-weight:700;}</style></defs><title>Asset 64</title><g id="Layer_2" data-name="Layer 2"><g id="Layer_26" data-name="Layer 26"><polygon class="cls-1" points="0 74.82 141.25 74.82 141.25 0 0 74.82"/><path class="cls-2" d="M111.9,63.49h-9l-.12,4.17a.53.53,0,0,1-.95.32l-3.68-4.49H92.46a4.59,4.59,0,0,1-4.59-4.59V43.74a4.59,4.59,0,0,1,4.59-4.59H111.9a4.59,4.59,0,0,1,4.59,4.59V58.9A4.59,4.59,0,0,1,111.9,63.49Z"/><line class="cls-3" x1="91.66" y1="48.02" x2="104.27" y2="48.02"/><line class="cls-3" x1="91.81" y1="52.37" x2="110.42" y2="52.37"/><line class="cls-3" x1="91.97" y1="57.35" x2="106.42" y2="57.35"/><path class="cls-1" d="M133.16,37.14a13.9,13.9,0,0,1-5.09,10.67c-.72.6.91,6.87.08,7.34S124,50.3,123,50.61a16.09,16.09,0,0,1-5.11.82c-8.41,0-15.23-6.4-15.23-14.3s6.82-14.3,15.23-14.3S133.16,29.24,133.16,37.14Z"/><path class="cls-4" d="M130.68,36.82a11.64,11.64,0,0,1-4.27,8.94c-.6.5.76,5.75.07,6.14s-3.48-4.07-4.27-3.8a13.47,13.47,0,0,1-4.28.69c-7,0-12.75-5.36-12.75-12s5.71-12,12.75-12S130.68,30.21,130.68,36.82Z"/><text class="cls-5" transform="translate(113.74 44.11)">?</text></g></g></svg>