<svg xmlns="http://www.w3.org/2000/svg" viewBox="0 0 759.28 528.58"><defs><style>.cls-1,.cls-12,.cls-6,.cls-8{fill:#4bd08b;}.cls-10,.cls-11,.cls-14,.cls-2,.cls-5,.cls-9{fill:none;}.cls-10,.cls-11,.cls-2,.cls-3,.cls-6,.cls-9{stroke:#1f3528;}.cls-10,.cls-11,.cls-14,.cls-2,.cls-3,.cls-5,.cls-6,.cls-7,.cls-9{stroke-miterlimit:10;}.cls-2,.cls-3,.cls-5,.cls-6{stroke-width:2px;}.cls-3,.cls-4,.cls-7{fill:#1f3528;}.cls-5,.cls-7{stroke:#4bd08b;}.cls-8{font-size:20.67px;}.cls-12,.cls-8{font-family:MyriadPro-Semibold, Myriad Pro;font-weight:700;}.cls-9{stroke-width:4px;}.cls-11{stroke-width:3px;}.cls-12{font-size:16.69px;}.cls-13{fill:#8ff9bc;}.cls-14{stroke:#8ff9bc;}</style></defs><title>Asset 50</title><g id="Layer_2" data-name="Layer 2"><g id="Layer_26" data-name="Layer 26"><circle class="cls-1" cx="116.22" cy="191.15" r="25.03"/><rect class="cls-1" x="427.49" y="442.55" width="65.03" height="64.51" rx="5" ry="5"/><circle class="cls-1" cx="598.84" cy="467.08" r="24.53"/><rect class="cls-1" x="514.23" y="442.55" width="42.06" height="50.76" rx="5" ry="5"/><rect class="cls-1" x="415.42" width="68.49" height="105.12" rx="5" ry="5"/><path class="cls-1" d="M617.4,58.67a23.11,23.11,0,0,0-10.67,2.6,34.94,34.94,0,0,0-68.92.83,22.14,22.14,0,1,0-8.55,43v0H617.4a23.22,23.22,0,1,0,0-46.44Z"/><polygon class="cls-1" points="258.37 0 204.31 104.11 311.26 104.11 258.37 0"/><path class="cls-1" d="M408.7,440.64a87.94,87.94,0,0,1-175.87,0C240.64,440.61,398,440.61,408.7,440.64Z"/><rect class="cls-1" x="337.69" y="55.78" width="48.71" height="49.33" rx="5" ry="5"/><rect class="cls-1" x="80.23" y="46.79" width="99.54" height="58.32" rx="5" ry="5"/><rect class="cls-1" x="653.21" y="255.34" width="91.16" height="102.1" rx="5" ry="5"/><rect class="cls-1" x="171.65" y="442.55" width="48.43" height="47.79" rx="5" ry="5"/><polygon class="cls-1" points="0 420.09 141.25 420.09 141.25 345.27 0 420.09"/><rect class="cls-1" x="652.87" y="159.03" width="106.41" height="72.01" rx="5" ry="5"/><rect class="cls-1" x="75.32" y="237.79" width="65.93" height="90.49" rx="5" ry="5"/><path class="cls-2" d="M596.62,459.08l-2.81-8.78a17.55,17.55,0,0,0-11.73,11.76l8.79,2.76A8.31,8.31,0,0,1,596.62,459.08Z"/><path class="cls-2" d="M606.82,464.79l8.79-2.8a17.55,17.55,0,0,0-11.7-11.67l-2.84,8.76A8.31,8.31,0,0,1,606.82,464.79Z"/><path class="cls-3" d="M598.84,458.77a8.29,8.29,0,0,1,2.23.31l2.84-8.76a17.42,17.42,0,0,0-10.11,0l2.81,8.78A8.29,8.29,0,0,1,598.84,458.77Z"/><path class="cls-3" d="M615.61,462l-8.79,2.8a8.18,8.18,0,0,1,0,4.58l8.78,2.83a17.57,17.57,0,0,0,0-10.2Z"/><path class="cls-2" d="M601.07,475.08l2.89,8.75A17.55,17.55,0,0,0,615.6,472.2l-8.78-2.83A8.31,8.31,0,0,1,601.07,475.08Z"/><path class="cls-3" d="M590.54,467.08a8.29,8.29,0,0,1,.32-2.26l-8.79-2.76a17.41,17.41,0,0,0,0,10l8.81-2.73A8.29,8.29,0,0,1,590.54,467.08Z"/><path class="cls-2" d="M596.65,475.08l-2.95,8.7,2.95-8.7h0a8.31,8.31,0,0,1-5.75-5.73L582,472.07a17.52,17.52,0,0,0,16.79,12.53"/><path class="cls-2" d="M582,472.07A17.48,17.48,0,0,0,604,483.83l-2.8-8.78-.09,0a8.11,8.11,0,0,1-4.42,0L594,483.56l2.69-8.48h0"/><path class="cls-3" d="M594.08,483.41c0-.09,2.68-8.17,2.68-8.17l4.25.08s3,8.21,3,8.21-7,.87-6.93.93S594.08,483.41,594.08,483.41Z"/><path class="cls-4" d="M439.13,485.8l-1.2-.3c-1.58-.3-2.57-1.23-2.57-2.67V458.25a2.6,2.6,0,0,1,2.6-2.6l18.42,3.72,18.25-3.72a2.6,2.6,0,0,1,2.6,2.6v24.58c0,1.44-1.06,2.14-2.6,2.6l-18.26,3.72Z"/><path class="cls-2" d="M439.13,485.8l-1.2-.3c-1.58-.3-2.57-1.23-2.57-2.67V458.25a2.6,2.6,0,0,1,2.6-2.6l18.42,3.72,18.25-3.72a2.6,2.6,0,0,1,2.6,2.6v24.58c0,1.44-1.06,2.14-2.6,2.6l-18.26,3.72Z"/><line class="cls-5" x1="440.03" y1="462" x2="450.6" y2="464.24"/><line class="cls-5" x1="440.03" y1="467.71" x2="450.6" y2="469.94"/><line class="cls-5" x1="440.03" y1="473.42" x2="450.6" y2="475.65"/><line class="cls-5" x1="440.03" y1="479.38" x2="450.6" y2="481.61"/><line class="cls-5" x1="461.99" y1="464.24" x2="472.56" y2="462"/><line class="cls-5" x1="461.99" y1="469.94" x2="472.56" y2="467.71"/><line class="cls-5" x1="461.99" y1="475.65" x2="472.56" y2="473.42"/><line class="cls-5" x1="461.99" y1="481.61" x2="472.56" y2="479.38"/><line class="cls-5" x1="456.3" y1="458.2" x2="456.3" y2="490.03"/><polygon class="cls-6" points="484.66 487.98 478.67 493.96 471.31 486.6 468.54 489.36 467.85 476.77 480.75 477.85 477.71 480.88 484.66 487.98"/><rect class="cls-4" x="279.94" y="454.41" width="79.7" height="52.22"/><rect class="cls-2" x="279.94" y="454.41" width="79.7" height="52.22"/><rect class="cls-5" x="285.96" y="472.07" width="16.91" height="16.91"/><polyline class="cls-5" points="288.88 480.05 292.29 483.94 299.9 476.64"/><rect class="cls-5" x="311.33" y="472.07" width="16.91" height="16.91"/><polyline class="cls-5" points="314.25 480.05 317.65 483.94 325.27 476.64"/><rect class="cls-5" x="336.7" y="472.07" width="16.91" height="16.91"/><polyline class="cls-5" points="339.62 480.05 343.02 483.94 350.64 476.64"/><path class="cls-3" d="M111.9,408.76h-9l-.12,4.17a.53.53,0,0,1-.95.32l-3.68-4.49H92.46a4.59,4.59,0,0,1-4.59-4.59V389a4.59,4.59,0,0,1,4.59-4.59H111.9a4.59,4.59,0,0,1,4.59,4.59v15.16A4.59,4.59,0,0,1,111.9,408.76Z"/><line class="cls-5" x1="91.66" y1="393.29" x2="104.27" y2="393.29"/><line class="cls-5" x1="91.81" y1="397.64" x2="110.42" y2="397.64"/><line class="cls-5" x1="91.97" y1="402.62" x2="106.42" y2="402.62"/><path class="cls-1" d="M133.16,382.41a13.9,13.9,0,0,1-5.09,10.67c-.72.6.91,6.87.08,7.34s-4.16-4.86-5.1-4.54a16.09,16.09,0,0,1-5.11.82c-8.41,0-15.23-6.4-15.23-14.3s6.82-14.3,15.23-14.3S133.16,374.51,133.16,382.41Z"/><path class="cls-7" d="M130.68,382.09a11.64,11.64,0,0,1-4.27,8.94c-.6.5.76,5.75.07,6.14s-3.48-4.07-4.27-3.8a13.47,13.47,0,0,1-4.28.69c-7,0-12.75-5.36-12.75-12s5.71-12,12.75-12S130.68,375.48,130.68,382.09Z"/><text class="cls-8" transform="translate(113.74 389.38)">?</text><path class="cls-9" d="M431.09,53.21s-.07-.93-.07-9.39a18.79,18.79,0,0,1,37.59,0v8.85"/><path class="cls-4" d="M433.58,69.4H427a4.3,4.3,0,0,1-4.29-4.29V56.29A4.3,4.3,0,0,1,427,52h6.79Z"/><path class="cls-2" d="M433.58,69.4H427a4.3,4.3,0,0,1-4.29-4.29V56.29A4.3,4.3,0,0,1,427,52h6.79Z"/><path class="cls-4" d="M465.74,69.4h6.61a4.3,4.3,0,0,0,4.29-4.29V56.29A4.3,4.3,0,0,0,472.35,52h-6.79Z"/><path class="cls-2" d="M465.74,69.4h6.61a4.3,4.3,0,0,0,4.29-4.29V56.29A4.3,4.3,0,0,0,472.35,52h-6.79Z"/><path class="cls-9" d="M448.87,77H463a6.11,6.11,0,0,0,6.09-6.09V68.65"/><rect class="cls-4" x="445.76" y="73.88" width="12.15" height="6.21" rx="3.1" ry="3.1"/><rect class="cls-2" x="445.76" y="73.88" width="12.15" height="6.21" rx="3.1" ry="3.1"/><rect class="cls-3" x="677.08" y="174.27" width="58" height="41.54" rx="2" ry="2"/><path class="cls-1" d="M697.22,186.29v17.5a1.3,1.3,0,0,0,2,1.13l15.11-8.75a1.3,1.3,0,0,0,0-2.25l-15.11-8.75A1.3,1.3,0,0,0,697.22,186.29Z"/><rect class="cls-1" x="678.87" y="177.48" width="6.7" height="6.7" rx="1" ry="1"/><rect class="cls-1" x="678.87" y="186.86" width="6.7" height="6.7" rx="1" ry="1"/><rect class="cls-1" x="678.87" y="196.92" width="6.7" height="6.7" rx="1" ry="1"/><rect class="cls-1" x="678.87" y="206.3" width="6.7" height="6.7" rx="1" ry="1"/><rect class="cls-1" x="725.79" y="177.48" width="6.7" height="6.7" rx="1" ry="1"/><rect class="cls-1" x="725.79" y="186.86" width="6.7" height="6.7" rx="1" ry="1"/><rect class="cls-1" x="725.79" y="196.92" width="6.7" height="6.7" rx="1" ry="1"/><rect class="cls-1" x="725.79" y="206.3" width="6.7" height="6.7" rx="1" ry="1"/><path class="cls-4" d="M125.39,286.19,123,284.31a1.81,1.81,0,0,1-.7-1.42l0-3.89a1.81,1.81,0,0,1,.65-1.4l2.6-2.17a1.81,1.81,0,0,0,.53-2,20.2,20.2,0,0,0-2.58-4.67,1.81,1.81,0,0,0-2.12-.59l-2.87,1.14a1.81,1.81,0,0,1-1.58-.12l-3.37-1.95a1.81,1.81,0,0,1-.88-1.27l-.6-3.64a1.81,1.81,0,0,0-1.47-1.49,20.18,20.18,0,0,0-6.33-.07,1.8,1.8,0,0,0-1.5,1.5l-.61,3.7a1.81,1.81,0,0,1-.88,1.27l-3.37,1.95a1.81,1.81,0,0,1-1.58.12L93.16,268a1.81,1.81,0,0,0-2.11.58,20.2,20.2,0,0,0-2.61,4.62,1.81,1.81,0,0,0,.55,2.08l3.19,2.57a1.81,1.81,0,0,1,.68,1.39l0,3.89a1.81,1.81,0,0,1-.68,1.43l-2.91,2.34a1.81,1.81,0,0,0-.52,2.15,20.23,20.23,0,0,0,2.69,4.37,1.81,1.81,0,0,0,2,.55l3.78-1.43a1.81,1.81,0,0,1,1.54.12l3.37,1.94a1.81,1.81,0,0,1,.89,1.31l.5,3.39a1.83,1.83,0,0,0,1.64,1.54q1,.09,1.95.1a20.16,20.16,0,0,0,2.41-.14,1.8,1.8,0,0,0,1.56-1.53l.5-3.36a1.81,1.81,0,0,1,.89-1.31l3.37-1.94a1.81,1.81,0,0,1,1.54-.12l3.5,1.32a1.8,1.8,0,0,0,2-.55,20.21,20.21,0,0,0,2.94-5A1.8,1.8,0,0,0,125.39,286.19Zm-18.18,3.11a8.57,8.57,0,1,1,8.57-8.57A8.57,8.57,0,0,1,107.21,289.3Z"/><path class="cls-2" d="M125.39,286.19,123,284.31a1.81,1.81,0,0,1-.7-1.42l0-3.89a1.81,1.81,0,0,1,.65-1.4l2.6-2.17a1.81,1.81,0,0,0,.53-2,20.2,20.2,0,0,0-2.58-4.67,1.81,1.81,0,0,0-2.12-.59l-2.87,1.14a1.81,1.81,0,0,1-1.58-.12l-3.37-1.95a1.81,1.81,0,0,1-.88-1.27l-.6-3.64a1.81,1.81,0,0,0-1.47-1.49,20.18,20.18,0,0,0-6.33-.07,1.8,1.8,0,0,0-1.5,1.5l-.61,3.7a1.81,1.81,0,0,1-.88,1.27l-3.37,1.95a1.81,1.81,0,0,1-1.58.12L93.16,268a1.81,1.81,0,0,0-2.11.58,20.2,20.2,0,0,0-2.61,4.62,1.81,1.81,0,0,0,.55,2.08l3.19,2.57a1.81,1.81,0,0,1,.68,1.39l0,3.89a1.81,1.81,0,0,1-.68,1.43l-2.91,2.34a1.81,1.81,0,0,0-.52,2.15,20.23,20.23,0,0,0,2.69,4.37,1.81,1.81,0,0,0,2,.55l3.78-1.43a1.81,1.81,0,0,1,1.54.12l3.37,1.94a1.81,1.81,0,0,1,.89,1.31l.5,3.39a1.83,1.83,0,0,0,1.64,1.54q1,.09,1.95.1a20.16,20.16,0,0,0,2.41-.14,1.8,1.8,0,0,0,1.56-1.53l.5-3.36a1.81,1.81,0,0,1,.89-1.31l3.37-1.94a1.81,1.81,0,0,1,1.54-.12l3.5,1.32a1.8,1.8,0,0,0,2-.55,20.21,20.21,0,0,0,2.94-5A1.8,1.8,0,0,0,125.39,286.19Zm-18.18,3.11a8.57,8.57,0,1,1,8.57-8.57A8.57,8.57,0,0,1,107.21,289.3Z"/><circle class="cls-1" cx="112.29" cy="289.43" r="11.02"/><circle class="cls-2" cx="112.36" cy="289.57" r="7.88"/><path class="cls-4" d="M127.76,304.42l-.62.62a1.88,1.88,0,0,1-2.34.19l-8.14-8.14,3.13-3.1,8.13,8.13A1.83,1.83,0,0,1,127.76,304.42Z"/><path class="cls-10" d="M127.76,304.42l-.62.62a1.88,1.88,0,0,1-2.34.19l-8.14-8.14,3.13-3.1,8.13,8.13A1.83,1.83,0,0,1,127.76,304.42Z"/><path class="cls-3" d="M147.26,88.27h-9.38a2.7,2.7,0,0,0-2.4,1.47l-3.29,6.4a1.22,1.22,0,0,1-2.16,0l-3.51-6.47a2.7,2.7,0,0,0-2.38-1.41H113.08A6.06,6.06,0,0,1,107,82.21V65.67a6.06,6.06,0,0,1,6.06-6.06h34.18a6.06,6.06,0,0,1,6.06,6.06V82.21A6.06,6.06,0,0,1,147.26,88.27Z"/><path class="cls-4" d="M344.66,66.4c.14,2,2.65,1.87,2.65,1.87l20.93-1.47V89.63l-.51.09-20,1.39a3,3,0,0,1-3-3C344.65,85.44,344.66,66.4,344.66,66.4Z"/><path class="cls-2" d="M344.66,66.4c.14,2,2.65,1.87,2.65,1.87l20.93-1.47V89.63l-.51.09-20,1.39a3,3,0,0,1-3-3C344.65,85.44,344.66,66.4,344.66,66.4Z"/><path class="cls-2" d="M344.67,66.89a3,3,0,0,1,1.88-3l20.25-1.69"/><path class="cls-2" d="M366.32,62.44s-3.33,3.1,2.46,4.3"/><circle class="cls-1" cx="366.05" cy="85.66" r="10.3"/><circle class="cls-1" cx="366.05" cy="85.66" r="7.62"/><circle class="cls-11" cx="366.05" cy="85.66" r="7.62"/><path class="cls-4" d="M372.83,89.35l6.31,6.31a.88.88,0,0,1,.06,1.24l-1.57,1.57a.88.88,0,0,1-1.24-.06l-6.31-6.31"/><text class="cls-12" transform="translate(363 91.05)">?</text><line class="cls-13" x1="574.45" y1="105.12" x2="574.45" y2="135.76"/><line class="cls-14" x1="574.45" y1="108.7" x2="574.45" y2="132.17"/><polygon class="cls-13" points="571.96 109.43 574.45 105.11 576.94 109.43 571.96 109.43"/><polygon class="cls-13" points="571.96 131.44 574.45 135.76 576.94 131.44 571.96 131.44"/><line class="cls-13" x1="257.79" y1="105.12" x2="257.79" y2="135.76"/><line class="cls-14" x1="257.79" y1="108.7" x2="257.79" y2="132.17"/><polygon class="cls-13" points="255.29 109.43 257.79 105.11 260.28 109.43 255.29 109.43"/><polygon class="cls-13" points="255.29 131.44 257.79 135.76 260.28 131.44 255.29 131.44"/><line class="cls-13" x1="537.26" y1="412.45" x2="537.26" y2="443.1"/><line class="cls-14" x1="537.26" y1="416.04" x2="537.26" y2="439.51"/><polygon class="cls-13" points="534.77 416.77 537.26 412.45 539.75 416.77 534.77 416.77"/><polygon class="cls-13" points="534.77 438.78 537.26 443.1 539.75 438.78 534.77 438.78"/><line class="cls-13" x1="319.78" y1="412.45" x2="319.78" y2="443.1"/><line class="cls-14" x1="319.78" y1="416.04" x2="319.78" y2="439.51"/><polygon class="cls-13" points="317.29 416.77 319.78 412.45 322.28 416.77 317.29 416.77"/><polygon class="cls-13" points="317.29 438.78 319.78 443.1 322.28 438.78 317.29 438.78"/><line class="cls-13" x1="652.62" y1="291.02" x2="621.98" y2="291.02"/><line class="cls-14" x1="649.03" y1="291.02" x2="625.56" y2="291.02"/><polygon class="cls-13" points="648.3 288.53 652.62 291.02 648.3 293.52 648.3 288.53"/><polygon class="cls-13" points="626.29 288.53 621.98 291.02 626.29 293.52 626.29 288.53"/><line class="cls-13" x1="652.62" y1="195.04" x2="621.98" y2="195.04"/><line class="cls-14" x1="649.03" y1="195.04" x2="625.56" y2="195.04"/><polygon class="cls-13" points="648.3 192.54 652.62 195.04 648.3 197.53 648.3 192.54"/><polygon class="cls-13" points="626.29 192.54 621.98 195.04 626.29 197.53 626.29 192.54"/><line class="cls-13" x1="237.37" y1="468.83" x2="220.73" y2="468.83"/><line class="cls-14" x1="233.78" y1="468.83" x2="224.32" y2="468.83"/><polygon class="cls-13" points="233.05 466.33 237.37 468.83 233.05 471.32 233.05 466.33"/><polygon class="cls-13" points="225.05 466.33 220.74 468.83 225.05 471.32 225.05 466.33"/><line class="cls-13" x1="427" y1="474.54" x2="402.36" y2="474.54"/><line class="cls-14" x1="423.41" y1="474.54" x2="405.95" y2="474.54"/><polygon class="cls-13" points="422.69 472.04 427 474.54 422.69 477.03 422.69 472.04"/><polygon class="cls-13" points="406.68 472.04 402.36 474.54 406.68 477.03 406.68 472.04"/><line class="cls-13" x1="171.36" y1="283.03" x2="140.71" y2="283.03"/><line class="cls-14" x1="167.77" y1="283.03" x2="144.3" y2="283.03"/><polygon class="cls-13" points="167.04 280.54 171.36 283.03 167.04 285.52 167.04 280.54"/><polygon class="cls-13" points="145.03 280.54 140.72 283.03 145.03 285.52 145.03 280.54"/><line class="cls-13" x1="171.36" y1="191.15" x2="140.71" y2="191.15"/><line class="cls-14" x1="167.77" y1="191.15" x2="144.3" y2="191.15"/><polygon class="cls-13" points="167.04 188.66 171.36 191.15 167.04 193.64 167.04 188.66"/><polygon class="cls-13" points="145.03 188.66 140.72 191.15 145.03 193.64 145.03 188.66"/><line class="cls-13" x1="685.58" y1="357.44" x2="685.58" y2="388.09"/><line class="cls-14" x1="685.58" y1="361.03" x2="685.58" y2="384.5"/><polygon class="cls-13" points="683.08 361.76 685.58 357.44 688.07 361.76 683.08 361.76"/><polygon class="cls-13" points="683.08 383.77 685.58 388.09 688.07 383.77 683.08 383.77"/><line class="cls-13" x1="219.59" y1="75.95" x2="179.93" y2="75.95"/><line class="cls-14" x1="216" y1="75.95" x2="183.52" y2="75.95"/><polygon class="cls-13" points="215.27 73.46 219.59 75.95 215.27 78.45 215.27 73.46"/><polygon class="cls-13" points="184.25 73.46 179.93 75.95 184.25 78.45 184.25 73.46"/><line class="cls-13" x1="171.36" y1="382.68" x2="140.71" y2="382.68"/><line class="cls-14" x1="167.77" y1="382.68" x2="144.3" y2="382.68"/><polygon class="cls-13" points="167.04 380.19 171.36 382.68 167.04 385.17 167.04 380.19"/><polygon class="cls-13" points="145.03 380.19 140.72 382.68 145.03 385.17 145.03 380.19"/><path class="cls-14" d="M109.18,424.68v30.6a12.3,12.3,0,0,0,12.3,12.3h47.58"/><polygon class="cls-13" points="106.68 425.41 109.18 421.09 111.67 425.41 106.68 425.41"/><polygon class="cls-13" points="168.33 470.07 172.65 467.58 168.33 465.09 168.33 470.07"/><line class="cls-13" x1="336.72" y1="75.95" x2="297.06" y2="75.95"/><line class="cls-14" x1="333.13" y1="75.95" x2="300.65" y2="75.95"/><polygon class="cls-13" points="332.4 73.46 336.72 75.95 332.4 78.45 332.4 73.46"/><polygon class="cls-13" points="301.38 73.46 297.06 75.95 301.38 78.45 301.38 73.46"/><line class="cls-13" x1="336.72" y1="85.96" x2="302.07" y2="85.96"/><line class="cls-14" x1="333.13" y1="85.96" x2="305.65" y2="85.96"/><polygon class="cls-13" points="332.4 83.47 336.72 85.96 332.4 88.46 332.4 83.47"/><polygon class="cls-13" points="306.38 83.47 302.07 85.96 306.38 88.46 306.38 83.47"/><rect class="cls-1" x="654.71" y="388.55" width="61.73" height="78.45" rx="5" ry="5"/></g></g></svg>