<svg xmlns="http://www.w3.org/2000/svg" viewBox="0 0 482.67 232.67"><defs><style>.cls-1{fill:#4bd08b;}.cls-2{font-size:39.99px;fill:#fff;font-family:MyriadPro-Regular, Myriad Pro;}.cls-3{letter-spacing:0.01em;}.cls-4{letter-spacing:0em;}.cls-5{letter-spacing:0.02em;}.cls-6{letter-spacing:-0.01em;}</style></defs><title>Asset 43</title><g id="Layer_2" data-name="Layer 2"><g id="Layer_26" data-name="Layer 26"><g id="Layer_5" data-name="Layer 5"><polygon class="cls-1" points="66 87.33 27.33 18 77.33 82 66 87.33"/><polygon class="cls-1" points="92 77.33 77.33 52.67 96.67 74 92 77.33"/><polygon class="cls-1" points="128 74 185.33 18 138 77.33 128 74"/><polygon class="cls-1" points="148.67 77.33 104.67 0 159.33 77.33 148.67 77.33"/><polygon class="cls-1" points="172.67 74.67 206 33.33 185.33 74.67 172.67 74.67"/><polygon class="cls-1" points="208.67 74.67 228.67 26 218.67 74.67 208.67 74.67"/><polygon class="cls-1" points="272.67 74.67 330.67 26 280.67 77.33 272.67 74.67"/><polygon class="cls-1" points="287.33 74.67 266.67 18 295.33 74.67 287.33 74.67"/><polygon class="cls-1" points="315.33 74.67 321.33 54 321.33 77.33 315.33 74.67"/><polygon class="cls-1" points="339.33 77.33 339.33 60 344.67 74.67 339.33 77.33"/><polygon class="cls-1" points="357.33 74.67 400 12.67 364 81.33 357.33 74.67"/><polygon class="cls-1" points="378.67 74.67 400 54 383.33 77.33 378.67 74.67"/><polygon class="cls-1" points="395.33 81.33 482.67 21.33 400 99.33 395.33 81.33"/><polygon class="cls-1" points="400 112.58 479.33 108 389.33 96 400 112.58"/><polygon class="cls-1" points="400 118.67 476 168 400 129.33 400 118.67"/><polygon class="cls-1" points="400 134 439 188.67 392.67 143.33 400 134"/><polygon class="cls-1" points="378.67 148 386 219.33 386 148 378.67 148"/><polygon class="cls-1" points="347.33 148 324 204.18 357.33 148 347.33 148"/><polygon class="cls-1" points="315.33 148 349.33 216 330.67 148 315.33 148"/><polygon class="cls-1" points="301.67 148 281 182 312.67 152 301.67 148"/><polygon class="cls-1" points="281 148 301.67 176.09 291.33 148 281 148"/><polygon class="cls-1" points="272.67 148 260.33 226.67 287.33 137.65 272.67 148"/><polygon class="cls-1" points="218.67 148 251.33 222 228.67 140 218.67 148"/><polygon class="cls-1" points="245.33 148 216 181 262.67 148 245.33 148"/><polygon class="cls-1" points="185.33 148 222 204.18 200 148 185.33 148"/><polygon class="cls-1" points="167.33 148 156.67 226.67 180.67 148 167.33 148"/><polygon class="cls-1" points="146 148 104.67 198.67 162 148 146 148"/><polygon class="cls-1" points="104.67 148 146.67 229.33 122 148 104.67 148"/><polygon class="cls-1" points="83.33 148 44 232.67 100.67 151.33 83.33 148"/><polygon class="cls-1" points="70 143.33 17.33 194.67 77.33 150 70 143.33"/><polygon class="cls-1" points="62 134 4 164.5 70 143.33 62 134"/><polygon class="cls-1" points="64 92 37 69.83 64 104.29 64 92"/><polygon class="cls-1" points="64 116 17.33 81.33 64 123.33 64 116"/><polygon class="cls-1" points="70 134 0 118.67 70 123.33 70 134"/><rect class="cls-1" x="59.12" y="69.83" width="345.22" height="85.51" rx="20" ry="20"/></g><text class="cls-2" transform="translate(139.18 128.23)"><tspan class="cls-3">S</tspan><tspan class="cls-4" x="19.96" y="0">elf-se</tspan><tspan class="cls-5" x="109.26" y="0">r</tspan><tspan x="123.34" y="0">vi</tspan><tspan class="cls-6" x="151.93" y="0">c</tspan><tspan x="169.61" y="0">e</tspan></text></g></g></svg>