<svg xmlns="http://www.w3.org/2000/svg" viewBox="0 0 52.25 56.18"><defs><style>.cls-1{fill:#1c1d21;stroke:#1c1d21;stroke-miterlimit:10;}.cls-2{fill:#4bd08b;}</style></defs><title>Asset 4</title><g id="Layer_2" data-name="Layer 2"><g id="Layer_26" data-name="Layer 26"><path class="cls-1" d="M34.68,14.39a3.35,3.35,0,0,1,0-2.74A4.11,4.11,0,0,1,36.7,9.54a3.72,3.72,0,0,1,5,1.53L47,22.14c4.49,9.5,8.44,24.73-4.47,30.83-4.64,2.19-10.49,3.15-15.6,1.11L4,43.43a4.89,4.89,0,0,1-2.6-2.17,4.13,4.13,0,0,1,0-3.38A5.18,5.18,0,0,1,7.5,35l11.8,3.66L4.26,6.81a3.68,3.68,0,0,1,0-3A4.6,4.6,0,0,1,6.86,1.27a4.22,4.22,0,0,1,5.34,2l5.95,12.59a3.35,3.35,0,0,1,0-2.74,4.06,4.06,0,0,1,2-2.1,3.7,3.7,0,0,1,5,1.52l1.13,2.39a3.35,3.35,0,0,1,0-2.74,4.11,4.11,0,0,1,2.05-2.11,3.72,3.72,0,0,1,5,1.53Z"/><g id="_Group_" data-name="&lt;Group&gt;"><path class="cls-2" d="M26.73,15.83a1,1,0,0,1-1.3-.47L24.3,13a2.75,2.75,0,0,0-3.71-1A3.09,3.09,0,0,0,19,13.5a2.38,2.38,0,0,0,0,2,1,1,0,1,1-1.77.84,4.3,4.3,0,0,1,0-3.54,5.06,5.06,0,0,1,2.53-2.61,4.7,4.7,0,0,1,6.32,2l1.13,2.39A1,1,0,0,1,26.73,15.83Z"/><path class="cls-2" d="M32,27.06a1,1,0,0,1-1.3-.47L28,20.89a1,1,0,1,1,1.77-.84l2.69,5.7A1,1,0,0,1,32,27.06Z"/><path class="cls-2" d="M29.35,21.36a1,1,0,0,1-1.3-.47l-2.61-5.53a4.31,4.31,0,0,1,0-3.54A5.08,5.08,0,0,1,27.92,9.2a4.7,4.7,0,0,1,6.33,2L35.56,14a1,1,0,0,1-1.77.84L32.48,12A2.75,2.75,0,0,0,28.76,11a3.12,3.12,0,0,0-1.57,1.61,2.37,2.37,0,0,0,0,1.95l2.61,5.53A1,1,0,0,1,29.35,21.36Z"/><path class="cls-2" d="M40.11,25.91a1,1,0,0,1-1.3-.47l-2-4.33a1,1,0,0,1,1.77-.84l2,4.33A1,1,0,0,1,40.11,25.91Z"/><path class="cls-2" d="M42.91,53.85C37.31,56.49,31.34,56.9,26.53,55l-23-10.67A5.87,5.87,0,0,1,.47,41.68a5.08,5.08,0,0,1-.05-4.17A6.17,6.17,0,0,1,7.79,34l9.67,3L3.38,7.23a4.64,4.64,0,0,1,0-3.85,5.58,5.58,0,0,1,3.17-3,5.2,5.2,0,0,1,6.58,2.51l11.5,24.35a1,1,0,0,1-1.77.84L11.32,3.71A3.23,3.23,0,0,0,7.21,2.19,3.61,3.61,0,0,0,5.14,4.13a2.72,2.72,0,0,0,0,2.26l15,31.83A1,1,0,0,1,19,39.58L7.21,35.92a4.18,4.18,0,0,0-5,2.34,3.15,3.15,0,0,0,0,2.58,3.94,3.94,0,0,0,2.13,1.7L27.3,53.19c4.26,1.7,9.66,1.3,14.77-1.11,13.24-6.25,7.21-22.73,4-29.52L40.84,11.48a2.75,2.75,0,0,0-3.72-1.06A3.12,3.12,0,0,0,35.55,12a2.37,2.37,0,0,0,0,1.95l3,6.3a1,1,0,1,1-1.77.84l-3-6.3a4.31,4.31,0,0,1,0-3.54,5.07,5.07,0,0,1,2.54-2.62,4.7,4.7,0,0,1,6.33,2l5.23,11.08C51.3,29,57.75,46.84,42.91,53.85Z"/></g></g></g></svg>