<svg xmlns="http://www.w3.org/2000/svg" id="_&#x5C64;_2" viewBox="0 0 283.54 138.21"><defs><style>.cls-1{fill:#c8161d;}.cls-2{fill:#595757;}.cls-3{fill:#007580;}</style></defs><g id="_&#x5C64;_1-2"><g><g><path class="cls-2" d="M156.58,132.4l-.07-.09c-.41-.57-.78-1.15-1.14-1.73H80.18l-3.92,6.47v1.11h86.46c-.15-.1-.3-.19-.45-.29-2.14-1.46-4.06-3.3-5.7-5.47Z"></path><rect class="cls-2" x="116.57" y="90.02" width="12.69" height="34.1"></rect><rect class="cls-2" x="133.8" y="90.02" width="12.69" height="34.1"></rect><path class="cls-2" d="M231.32,96.32c-2.16-2.19-4.76-3.93-7.78-5.2-2.96-1.27-6.15-1.91-9.59-1.91s-6.49,.62-9.45,1.86c-2.99,1.27-5.61,3.04-7.87,5.3-2.23,2.23-3.99,4.85-5.3,7.87-1.27,2.96-1.91,6.12-1.91,9.49,0,4.45,1.1,8.54,3.29,12.26,2.19,3.75,5.17,6.73,8.92,8.92,3.72,2.19,7.82,3.29,12.31,3.29,3.28,0,6.44-.65,9.49-1.96,3.05-1.3,5.68-3.05,7.87-5.25,2.19-2.19,3.94-4.79,5.25-7.78,1.27-2.92,1.91-6.09,1.91-9.49s-.64-6.68-1.91-9.64-3.02-5.55-5.25-7.78Zm-9.87,21.71c-.83,1.34-1.89,2.39-3.2,3.15-1.34,.76-2.77,1.14-4.29,1.14s-2.96-.38-4.29-1.14c-1.34-.76-2.39-1.81-3.15-3.15-.8-1.27-1.19-2.7-1.19-4.29s.4-3.04,1.19-4.34c.76-1.3,1.81-2.35,3.15-3.15,1.3-.76,2.73-1.14,4.29-1.14s3.01,.38,4.34,1.14c1.3,.8,2.35,1.85,3.15,3.15,.76,1.34,1.14,2.78,1.14,4.34s-.38,2.99-1.14,4.29Z"></path><polygon class="cls-2" points="151.42 83.58 151.42 76 113.2 76 108.62 83.58 151.42 83.58"></polygon><path class="cls-2" d="M269.06,76h-89.02v7.58h89.02c1.57,0,2.84,1.27,2.84,2.84s-1.27,2.84-2.84,2.84c-.95-.1-1.68-.14-2.19-.14-5.57,0-10.32,1.73-14.26,5.2-1.62,1.43-3.01,3.07-4.15,4.91-1.05,1.69-1.85,3.74-2.39,6.15-.51,2.26-.76,4.76-.76,7.49v24.33h15.93v-23.33c0-2.73,.19-4.58,.57-5.53,.86-2.26,2.45-3.39,4.77-3.39h2.48c8,0,14.48-6.48,14.48-14.48s-6.48-14.48-14.48-14.48Z"></path><path class="cls-2" d="M173.69,76h-15.93v36.11c0,3.09,.13,5.69,.38,7.82,.25,2.04,.68,3.79,1.29,5.25,.64,1.53,1.51,3.07,2.62,4.63,1.37,1.81,2.94,3.32,4.72,4.53,1.78,1.27,3.74,2.23,5.87,2.86,2.1,.67,4.33,1,6.68,1,.76,0,1.81-.08,3.15-.24v-15.74c-1.43,.16-2.24,.24-2.43,.24-2.23,0-3.83-.54-4.82-1.62-1.02-1.11-1.53-2.86-1.53-5.25v-9.73h8.78v-15.93h-8.78v-13.93Z"></path></g><g><path class="cls-3" d="M64.15,138.21H22.59S4.56,48.03,2.2,32.35C-.15,16.66-4.27,0,12.79,0H59.05s5.1,41.49,14.77,63.19c9.67,21.69,18.04,20.39,27.97,12.81l-37.64,62.21Z"></path><path class="cls-1" d="M148.32,0s-28.54,46.76-31.67,51.73c-5.71,9.07-8.58,9.07-19.56,10.15,0,0,3-13.45,3.53-27.18,.47-12.06-3.79-34.7,12.15-34.7h35.55Z"></path></g></g></g></svg>